<?xml version="1.0"?>
<svg xmlns="http://www.w3.org/2000/svg" xmlns:xlink="http://www.w3.org/1999/xlink" height="1035.6700592041016" version="1.1" width="1352.2886810302734" id="temp" viewBox="0 0 1352.2886810302734 1035.6700592041016"><defs/><g id="Model" class="Model v1-1"><g class="Floor"><g id="Floor-1" transform="matrix(1,0,0,1,0,0)" class="Floorplan Floor-1"><g id="e1867fb9-01fc-43be-b938-af7bc8d1ad29" class="Space Undefined" fill="#ffffff" stroke="#ffffff" style="fill-opacity: 1; stroke-opacity: 1; stroke-width: 0.2;"><polygon points="1179.30,707.60 1127.46,707.60 1127.46,629.64 1179.30,629.64 "/><g transform="matrix(1,0,0,1,1127.4613,629.6424)" class="Dimension"><g transform="matrix(1,0,0,1,0,0)" style="display: none;" class="Visual"><g id="mark1" fill="#000000" stroke="none" transform="matrix(1,0,0,1,25.9211,0)" style="fill-opacity: 1; pointer-events: visible;" class="DimensionMark"><polygon points="-5,5,0,0,5,5"/></g><g id="mark2" fill="#000000" stroke="none" transform="matrix(1,0,0,1,51.8422,38.9805)" style="fill-opacity: 1; pointer-events: visible;" class="DimensionMark"><polygon points="-5,-5,0,0,-5,5"/></g><g id="mark3" fill="#000000" stroke="none" transform="matrix(1,0,0,1,25.9211,77.961)" style="fill-opacity: 1; pointer-events: visible;" class="DimensionMark"><polygon points="-5,-5,0,0,5,-5"/></g><g id="mark4" fill="#000000" stroke="none" transform="matrix(1,0,0,1,0,38.9805)" style="fill-opacity: 1; pointer-events: visible;" class="DimensionMark"><polygon points="5,5,0,0,5,-5"/></g></g><g transform="matrix(1,0,0,1,25.9211,25.9211)" class="SpaceDimensionsLabel"><g id="NameLabel" style="display: block;" class="TextLabel NameLabel"><text x="0" y="0em" fill="#000000" stroke="none" style="font-family: Verdana; font-size: 33px; fill-opacity: 1; cursor: default;">UNDEFINED</text></g><g id="DimensionMeasureLabel" transform="matrix(1,0,0,1,12.1485,40.1406)" style="display: none;" class="TextLabel DimensionMeasureLabel"><text x="0" y="0em" fill="#000000" stroke="none" style="font-family: Verdana; font-size: 33px; fill-opacity: 1; cursor: default;">1'8" x 2'7"</text><text x="0" y="0" fill="#000000" stroke="none" style="font-family: Verdana; font-size: 33px; fill-opacity: 1; cursor: default;"/></g></g></g></g><g id="55c09b4c-2012-4609-a729-19fe1bafb999" class="Space Undefined" fill="#ffffff" stroke="#ffffff" style="fill-opacity: 1; stroke-opacity: 1; stroke-width: 0.2;"><polygon points="441.43,701.42 363.42,701.42 363.42,631.38 441.43,631.38 "/><g transform="matrix(1,0,0,1,363.4216,631.376)" class="Dimension"><g transform="matrix(1,0,0,1,0,0)" style="display: none;" class="Visual"><g id="mark1" fill="#000000" stroke="none" transform="matrix(1,0,0,1,39.0054,0)" style="fill-opacity: 1; pointer-events: visible;" class="DimensionMark"><polygon points="-5,5,0,0,5,5"/></g><g id="mark2" fill="#000000" stroke="none" transform="matrix(1,0,0,1,78.0109,35.0229)" style="fill-opacity: 1; pointer-events: visible;" class="DimensionMark"><polygon points="-5,-5,0,0,-5,5"/></g><g id="mark3" fill="#000000" stroke="none" transform="matrix(1,0,0,1,39.0054,70.0459)" style="fill-opacity: 1; pointer-events: visible;" class="DimensionMark"><polygon points="-5,-5,0,0,5,-5"/></g><g id="mark4" fill="#000000" stroke="none" transform="matrix(1,0,0,1,0,35.0229)" style="fill-opacity: 1; pointer-events: visible;" class="DimensionMark"><polygon points="5,5,0,0,5,-5"/></g></g><g transform="matrix(1,0,0,1,35.023,35.023)" class="SpaceDimensionsLabel"><g id="NameLabel" style="display: block;" class="TextLabel NameLabel"><text x="0" y="0em" fill="#000000" stroke="none" style="font-family: Verdana; font-size: 33px; fill-opacity: 1; cursor: default;">UNDEFINED</text></g><g id="DimensionMeasureLabel" transform="matrix(1,0,0,1,12.1485,40.1406)" style="display: none;" class="TextLabel DimensionMeasureLabel"><text x="0" y="0em" fill="#000000" stroke="none" style="font-family: Verdana; font-size: 33px; fill-opacity: 1; cursor: default;">2'7" x 2'4"</text><text x="0" y="0" fill="#000000" stroke="none" style="font-family: Verdana; font-size: 33px; fill-opacity: 1; cursor: default;"/></g></g></g></g><g id="63b0eaf0-1c7a-4a1b-a652-c79d086548c3" class="Space Undefined" fill="#ffffff" stroke="#ffffff" style="fill-opacity: 1; stroke-opacity: 1; stroke-width: 0.2;"><polygon points="350.42,701.42 266.87,701.42 266.87,631.38 350.42,631.38 "/><g transform="matrix(1,0,0,1,266.8734,631.376)" class="Dimension"><g transform="matrix(1,0,0,1,0,0)" style="display: none;" class="Visual"><g id="mark1" fill="#000000" stroke="none" transform="matrix(1,0,0,1,41.7741,0)" style="fill-opacity: 1; pointer-events: visible;" class="DimensionMark"><polygon points="-5,5,0,0,5,5"/></g><g id="mark2" fill="#000000" stroke="none" transform="matrix(1,0,0,1,83.5482,35.0229)" style="fill-opacity: 1; pointer-events: visible;" class="DimensionMark"><polygon points="-5,-5,0,0,-5,5"/></g><g id="mark3" fill="#000000" stroke="none" transform="matrix(1,0,0,1,41.7741,70.0459)" style="fill-opacity: 1; pointer-events: visible;" class="DimensionMark"><polygon points="-5,-5,0,0,5,-5"/></g><g id="mark4" fill="#000000" stroke="none" transform="matrix(1,0,0,1,0,35.0229)" style="fill-opacity: 1; pointer-events: visible;" class="DimensionMark"><polygon points="5,5,0,0,5,-5"/></g></g><g transform="matrix(1,0,0,1,35.0229,35.023)" class="SpaceDimensionsLabel"><g id="NameLabel" style="display: block;" class="TextLabel NameLabel"><text x="0" y="0em" fill="#000000" stroke="none" style="font-family: Verdana; font-size: 33px; fill-opacity: 1; cursor: default;">UNDEFINED</text></g><g id="DimensionMeasureLabel" transform="matrix(1,0,0,1,12.1485,40.1406)" style="display: none;" class="TextLabel DimensionMeasureLabel"><text x="0" y="0em" fill="#000000" stroke="none" style="font-family: Verdana; font-size: 33px; fill-opacity: 1; cursor: default;">2'9" x 2'4"</text><text x="0" y="0" fill="#000000" stroke="none" style="font-family: Verdana; font-size: 33px; fill-opacity: 1; cursor: default;"/></g></g></g></g><g id="9ff5beb6-4ce0-491e-acac-8dfd15ba3932" class="Space UserDefined" fill="#ffffff" stroke="#ffffff" style="fill-opacity: 1; stroke-opacity: 1; stroke-width: 0.2;"><polygon points="968.59,892.21 777.73,892.21 777.73,694.61 968.59,694.61 "/><g transform="matrix(1,0,0,1,777.728,694.6119)" class="Dimension"><g transform="matrix(1,0,0,1,0,0)" style="display: none;" class="Visual"><g id="mark1" fill="#000000" stroke="none" transform="matrix(1,0,0,1,95.4303,0)" style="fill-opacity: 1; pointer-events: visible;" class="DimensionMark"><polygon points="-5,5,0,0,5,5"/></g><g id="mark2" fill="#000000" stroke="none" transform="matrix(1,0,0,1,190.8607,98.8009)" style="fill-opacity: 1; pointer-events: visible;" class="DimensionMark"><polygon points="-5,-5,0,0,-5,5"/></g><g id="mark3" fill="#000000" stroke="none" transform="matrix(1,0,0,1,95.4303,197.6017)" style="fill-opacity: 1; pointer-events: visible;" class="DimensionMark"><polygon points="-5,-5,0,0,5,-5"/></g><g id="mark4" fill="#000000" stroke="none" transform="matrix(1,0,0,1,0,98.8009)" style="fill-opacity: 1; pointer-events: visible;" class="DimensionMark"><polygon points="5,5,0,0,5,-5"/></g></g><g transform="matrix(1,0,0,1,37.0874,94.6472)" class="SpaceDimensionsLabel"><g id="NameLabel" style="display: block;" class="TextLabel NameLabel"><text x="0" y="0em" fill="#000000" stroke="none" style="font-family: Verdana; font-size: 33px; fill-opacity: 1; cursor: default;">WC/SH</text></g><g id="DimensionMeasureLabel" transform="matrix(1,0,0,1,-28.3203,40.1406)" style="display: none;" class="TextLabel DimensionMeasureLabel"><text x="0" y="0em" fill="#000000" stroke="none" style="font-family: Verdana; font-size: 33px; fill-opacity: 1; cursor: default;">6'3" x 6'6"</text><text x="0" y="0" fill="#000000" stroke="none" style="font-family: Verdana; font-size: 33px; fill-opacity: 1; cursor: default;"/></g></g></g></g><g id="58b33ba0-f9a6-4f22-add7-8ae7ae5be915" class="Space Kitchen Kitchenette" fill="#ffffff" stroke="#ffffff" style="fill-opacity: 1; stroke-opacity: 1; stroke-width: 0.2;"><polygon points="1118.55,720.60 1179.30,720.60 1179.30,892.21 981.59,892.21 981.59,629.64 1118.55,629.64 "/><g transform="matrix(1,0,0,1,981.5887,629.6424)" class="Dimension"><g transform="matrix(1,0,0,1,0,0)" style="display: none;" class="Visual"><g id="mark1" fill="#000000" stroke="none" transform="matrix(1,0,0,1,98.8574,0)" style="fill-opacity: 1; pointer-events: visible;" class="DimensionMark"><polygon points="-5,5,0,0,5,5"/></g><g id="mark2" fill="#000000" stroke="none" transform="matrix(1,0,0,1,197.7148,131.2856)" style="fill-opacity: 1; pointer-events: visible;" class="DimensionMark"><polygon points="-5,-5,0,0,-5,5"/></g><g id="mark3" fill="#000000" stroke="none" transform="matrix(1,0,0,1,98.8574,262.5712)" style="fill-opacity: 1; pointer-events: visible;" class="DimensionMark"><polygon points="-5,-5,0,0,5,-5"/></g><g id="mark4" fill="#000000" stroke="none" transform="matrix(1,0,0,1,0,131.2856)" style="fill-opacity: 1; pointer-events: visible;" class="DimensionMark"><polygon points="5,5,0,0,5,-5"/></g></g><g transform="matrix(1,0,0,1,54.3163,152.6715)" class="SpaceDimensionsLabel"><g id="NameLabel" style="display: block;" class="TextLabel NameLabel"><text x="0" y="0em" fill="#000000" stroke="none" style="font-family: Verdana; font-size: 33px; fill-opacity: 1; cursor: default;">KK</text></g><g id="DimensionMeasureLabel" transform="matrix(1,0,0,1,-64,40.1406)" style="display: none;" class="TextLabel DimensionMeasureLabel"><text x="0" y="0em" fill="#000000" stroke="none" style="font-family: Verdana; font-size: 33px; fill-opacity: 1; cursor: default;">6'6" x 8'7"</text><text x="0" y="0" fill="#000000" stroke="none" style="font-family: Verdana; font-size: 33px; fill-opacity: 1; cursor: default;"/></g></g></g></g><g id="903eba45-b744-4d72-8c31-2bef54a05677" class="Space Entry Lobby" fill="#ffffff" stroke="#ffffff" style="fill-opacity: 1; stroke-opacity: 1; stroke-width: 0.2;"><polygon points="764.73,892.21 504.43,892.21 504.43,629.38 764.73,629.38 "/><g transform="matrix(1,0,0,1,504.4325,629.3752)" class="Dimension"><g transform="matrix(1,0,0,1,0,0)" style="display: none;" class="Visual"><g id="mark1" fill="#000000" stroke="none" transform="matrix(1,0,0,1,130.1478,0)" style="fill-opacity: 1; pointer-events: visible;" class="DimensionMark"><polygon points="-5,5,0,0,5,5"/></g><g id="mark2" fill="#000000" stroke="none" transform="matrix(1,0,0,1,260.2955,131.4192)" style="fill-opacity: 1; pointer-events: visible;" class="DimensionMark"><polygon points="-5,-5,0,0,-5,5"/></g><g id="mark3" fill="#000000" stroke="none" transform="matrix(1,0,0,1,130.1478,262.8385)" style="fill-opacity: 1; pointer-events: visible;" class="DimensionMark"><polygon points="-5,-5,0,0,5,-5"/></g><g id="mark4" fill="#000000" stroke="none" transform="matrix(1,0,0,1,0,131.4192)" style="fill-opacity: 1; pointer-events: visible;" class="DimensionMark"><polygon points="5,5,0,0,5,-5"/></g></g><g transform="matrix(1,0,0,1,110.2883,159.1731)" class="SpaceDimensionsLabel"><g id="NameLabel" style="display: block;" class="TextLabel NameLabel"><text x="0" y="0em" fill="#000000" stroke="none" style="font-family: Verdana; font-size: 33px; fill-opacity: 1; cursor: default;">ET</text></g><g id="DimensionMeasureLabel" transform="matrix(1,0,0,1,-66.4844,40.1406)" style="display: none;" class="TextLabel DimensionMeasureLabel"><text x="0" y="0em" fill="#000000" stroke="none" style="font-family: Verdana; font-size: 33px; fill-opacity: 1; cursor: default;">8'6" x 8'7"</text><text x="0" y="0" fill="#000000" stroke="none" style="font-family: Verdana; font-size: 33px; fill-opacity: 1; cursor: default;"/></g></g></g></g><g id="18fc2eca-9826-4acc-9b09-f63c7add31b0" class="Space Bedroom" fill="#ffffff" stroke="#ffffff" style="fill-opacity: 1; stroke-opacity: 1; stroke-width: 0.2;"><polygon points="629.17,616.38 84.39,616.38 84.39,143.19 629.17,143.19 "/><g transform="matrix(1,0,0,1,84.3861,143.1915)" class="Dimension"><g transform="matrix(1,0,0,1,0,0)" style="display: none;" class="Visual"><g id="mark1" fill="#000000" stroke="none" transform="matrix(1,0,0,1,272.3906,0)" style="fill-opacity: 1; pointer-events: visible;" class="DimensionMark"><polygon points="-5,5,0,0,5,5"/></g><g id="mark2" fill="#000000" stroke="none" transform="matrix(1,0,0,1,544.7812,236.5919)" style="fill-opacity: 1; pointer-events: visible;" class="DimensionMark"><polygon points="-5,-5,0,0,-5,5"/></g><g id="mark3" fill="#000000" stroke="none" transform="matrix(1,0,0,1,272.3906,473.1837)" style="fill-opacity: 1; pointer-events: visible;" class="DimensionMark"><polygon points="-5,-5,0,0,5,-5"/></g><g id="mark4" fill="#000000" stroke="none" transform="matrix(1,0,0,1,0,236.5919)" style="fill-opacity: 1; pointer-events: visible;" class="DimensionMark"><polygon points="5,5,0,0,5,-5"/></g></g><g transform="matrix(1,0,0,1,240.4813,235.2045)" class="SpaceDimensionsLabel"><g id="NameLabel" style="display: block;" class="TextLabel NameLabel"><text x="0" y="0em" fill="#000000" stroke="none" style="font-family: Verdana; font-size: 33px; fill-opacity: 1; cursor: default;">MH</text></g><g id="DimensionMeasureLabel" transform="matrix(1,0,0,1,-92.4922,40.1406)" style="display: none;" class="TextLabel DimensionMeasureLabel"><text x="0" y="0em" fill="#000000" stroke="none" style="font-family: Verdana; font-size: 33px; fill-opacity: 1; cursor: default;">17'10" x 15'6"</text><text x="0" y="0" fill="#000000" stroke="none" style="font-family: Verdana; font-size: 33px; fill-opacity: 1; cursor: default;"/></g></g></g></g><g id="e8e837d5-9c6a-4ccf-b079-94c6bdb3ec82" class="Space LivingRoom" fill="#ffffff" stroke="#ffffff" style="fill-opacity: 1; stroke-opacity: 1; stroke-width: 0.2;"><polygon points="1179.30,616.64 968.59,616.64 968.59,681.61 777.73,681.61 777.73,616.38 642.17,616.38 642.17,143.19 1179.30,143.19 "/><g transform="matrix(1,0,0,1,642.1673,143.1915)" class="Dimension"><g transform="matrix(1,0,0,1,0,0)" style="display: none;" class="Visual"><g id="mark1" fill="#000000" stroke="none" transform="matrix(1,0,0,1,268.5681,0)" style="fill-opacity: 1; pointer-events: visible;" class="DimensionMark"><polygon points="-5,5,0,0,5,5"/></g><g id="mark2" fill="#000000" stroke="none" transform="matrix(1,0,0,1,537.1362,269.2102)" style="fill-opacity: 1; pointer-events: visible;" class="DimensionMark"><polygon points="-5,-5,0,0,-5,5"/></g><g id="mark3" fill="#000000" stroke="none" transform="matrix(1,0,0,1,268.5681,538.4205)" style="fill-opacity: 1; pointer-events: visible;" class="DimensionMark"><polygon points="-5,-5,0,0,5,-5"/></g><g id="mark4" fill="#000000" stroke="none" transform="matrix(1,0,0,1,0,269.2102)" style="fill-opacity: 1; pointer-events: visible;" class="DimensionMark"><polygon points="5,5,0,0,5,-5"/></g></g><g transform="matrix(1,0,0,1,268.8868,248.0765)" class="SpaceDimensionsLabel"><g id="NameLabel" style="display: block;" class="TextLabel NameLabel"><text x="0" y="0em" fill="#000000" stroke="none" style="font-family: Verdana; font-size: 33px; fill-opacity: 1; cursor: default;">OH</text></g><g id="DimensionMeasureLabel" transform="matrix(1,0,0,1,-82.9141,40.1406)" style="display: none;" class="TextLabel DimensionMeasureLabel"><text x="0" y="0em" fill="#000000" stroke="none" style="font-family: Verdana; font-size: 33px; fill-opacity: 1; cursor: default;">17'7" x 17'8"</text><text x="0" y="0" fill="#000000" stroke="none" style="font-family: Verdana; font-size: 33px; fill-opacity: 1; cursor: default;"/></g></g></g></g><g id="Wall" class="Wall External" fill="#000000" stroke="#000000" style="fill-opacity: 1; stroke-opacity: 1; stroke-width: 0.2;"><polygon points="84.39,616.38 84.39,143.19 59.39,97.05 59.39,639.27 "/></g><g id="Wall" class="Wall External" fill="#000000" stroke="#000000" style="fill-opacity: 1; stroke-opacity: 1; stroke-width: 0.2;"><polygon points="84.39,143.19 1179.30,143.19 1223.86,97.05 59.39,97.05 "/><g id="Window" fill="#f0f0ff" stroke="#000000" style="fill-opacity: 1; stroke-width: 1; stroke-opacity: 1;" class="Window Regular"><polygon points="195.22,143.19 291.46,143.19 291.46,97.05 195.22,97.05 "/><g id="Glass" class="Glass"><polygon points="195.22,143.19 291.46,143.19 291.46,97.05 195.22,97.05 "/></g><g id="Panel" class="Panel"><line x1="202.72000122070312" x2="283.9599914550781" y1="120.12000274658203" y2="120.12000274658203"/><line x1="202.72000122070312" x2="202.72000122070312" y1="143.19000244140625" y2="97.05000305175781"/><line x1="283.9599914550781" x2="283.9599914550781" y1="143.19000244140625" y2="97.05000305175781"/></g></g><g id="Window" fill="#f0f0ff" stroke="#000000" style="fill-opacity: 1; stroke-width: 1; stroke-opacity: 1;" class="Window Regular"><polygon points="291.46,143.19 474.11,143.19 474.11,97.05 291.46,97.05 "/><g id="Glass" class="Glass"><polygon points="291.46,143.19 474.11,143.19 474.11,97.05 291.46,97.05 "/></g><g id="Panel" class="Panel"><line x1="298.9599914550781" x2="466.6099853515625" y1="120.12000274658203" y2="120.12000274658203"/><line x1="298.9599914550781" x2="298.9599914550781" y1="143.19000244140625" y2="97.05000305175781"/><line x1="466.6099853515625" x2="466.6099853515625" y1="143.19000244140625" y2="97.05000305175781"/></g></g><g id="Window" fill="#f0f0ff" stroke="#000000" style="fill-opacity: 1; stroke-width: 1; stroke-opacity: 1;" class="Window Regular"><polygon points="474.11,143.19 579.15,143.19 579.15,97.05 474.11,97.05 "/><g id="Glass" class="Glass"><polygon points="474.11,143.19 579.15,143.19 579.15,97.05 474.11,97.05 "/></g><g id="Panel" class="Panel"><line x1="481.6099853515625" x2="571.6500244140625" y1="120.12000274658203" y2="120.12000274658203"/><line x1="481.6099853515625" x2="481.6099853515625" y1="143.19000244140625" y2="97.05000305175781"/><line x1="571.6500244140625" x2="571.6500244140625" y1="143.19000244140625" y2="97.05000305175781"/></g></g><g id="Window" fill="#f0f0ff" stroke="#000000" style="fill-opacity: 1; stroke-width: 1; stroke-opacity: 1;" class="Window Regular"><polygon points="939.74,143.19 994.93,143.19 994.93,97.05 939.74,97.05 "/><g id="Glass" class="Glass"><polygon points="939.74,143.19 994.93,143.19 994.93,97.05 939.74,97.05 "/></g><g id="Panel" class="Panel"><line x1="947.239990234375" x2="987.4299926757812" y1="120.12000274658203" y2="120.12000274658203"/><line x1="947.239990234375" x2="947.239990234375" y1="143.19000244140625" y2="97.05000305175781"/><line x1="987.4299926757812" x2="987.4299926757812" y1="143.19000244140625" y2="97.05000305175781"/></g></g><g id="Window" fill="#f0f0ff" stroke="#000000" style="fill-opacity: 1; stroke-width: 1; stroke-opacity: 1;" class="Window Regular"><polygon points="994.93,143.19 1177.77,143.19 1177.77,97.05 994.93,97.05 "/><g id="Glass" class="Glass"><polygon points="994.93,143.19 1177.77,143.19 1177.77,97.05 994.93,97.05 "/></g><g id="Panel" class="Panel"><line x1="1002.4299926757812" x2="1170.27001953125" y1="120.12000274658203" y2="120.12000274658203"/><line x1="1002.4299926757812" x2="1002.4299926757812" y1="143.19000244140625" y2="97.05000305175781"/><line x1="1170.27001953125" x2="1170.27001953125" y1="143.19000244140625" y2="97.05000305175781"/></g></g></g><g id="Wall" class="Wall External" fill="#000000" stroke="#000000" style="fill-opacity: 1; stroke-opacity: 1; stroke-width: 0.2;"><polygon points="1179.30,143.19 1179.30,892.21 1223.86,924.80 1223.86,97.05 "/><g id="Window" fill="#f0f0ff" stroke="#000000" style="fill-opacity: 1; stroke-width: 1; stroke-opacity: 1;" class="Window Regular"><polygon points="1179.30,143.83 1179.30,329.87 1223.86,329.87 1223.86,143.83 "/><g id="Glass" class="Glass"><polygon points="1179.30,143.83 1179.30,329.87 1223.86,329.87 1223.86,143.83 "/></g><g id="Panel" class="Panel"><line x1="1201.5800170898438" x2="1201.5800170898438" y1="151.3300018310547" y2="322.3699951171875"/><line x1="1179.300048828125" x2="1223.8599853515625" y1="151.3300018310547" y2="151.3300018310547"/><line x1="1179.300048828125" x2="1223.8599853515625" y1="322.3699951171875" y2="322.3699951171875"/></g></g><g id="Window" fill="#f0f0ff" stroke="#000000" style="fill-opacity: 1; stroke-width: 1; stroke-opacity: 1;" class="Window Regular"><polygon points="1179.30,329.87 1179.30,383.79 1223.86,383.79 1223.86,329.87 "/><g id="Glass" class="Glass"><polygon points="1179.30,329.87 1179.30,383.79 1223.86,383.79 1223.86,329.87 "/></g><g id="Panel" class="Panel"><line x1="1201.5800170898438" x2="1201.5800170898438" y1="337.3699951171875" y2="376.2900085449219"/><line x1="1179.300048828125" x2="1223.8599853515625" y1="337.3699951171875" y2="337.3699951171875"/><line x1="1179.300048828125" x2="1223.8599853515625" y1="376.2900085449219" y2="376.2900085449219"/></g></g></g><g id="Wall" class="Wall External" fill="#000000" stroke="#000000" style="fill-opacity: 1; stroke-opacity: 1; stroke-width: 0.2;"><polygon points="1179.30,892.21 504.43,892.21 441.43,924.80 1223.86,924.80 "/><g id="Door" fill="#ffffff" stroke="#000000" style="fill-opacity: 1; stroke-width: 1; stroke-opacity: 1;" class="Door Swing Opposite"><polygon points="621.91,892.21 511.04,892.21 511.04,924.80 621.91,924.80 "/><g id="Threshold" class="Threshold"><polygon points="621.91,892.21 511.04,892.21 511.04,924.80 621.91,924.80 "/></g><g id="Panel" fill="none" style="" class="Panel Left Negative"><g id="PanelArea" fill="none" stroke="none" style="" class="PanelArea"><polygon points="621.91,892.21 511.04,892.21 511.04,924.80 621.91,924.80 "/></g><path d="M621.91,892.21 q0.00,-110.87 -110.87,-110.87 l0.00,110.87Z"/></g><g id="Panel" fill="none" style="" class="Panel Left Positive"><g id="PanelArea" fill="none" stroke="none" style="" class="PanelArea"><polygon points="621.91,892.21 511.04,892.21 511.04,924.80 621.91,924.80 "/></g><path d="M511.04,924.80 q0.00,110.87 110.87,110.87 l0.00,-110.87Z"/></g></g></g><g id="Wall" class="Wall External" fill="#000000" stroke="#000000" style="fill-opacity: 1; stroke-opacity: 1; stroke-width: 0.2;"><polygon points="504.43,892.21 504.43,701.42 441.43,728.42 441.43,924.80 "/></g><g id="Wall" class="Wall" fill="#000000" stroke="#000000" style="fill-opacity: 1; stroke-opacity: 1; stroke-width: 0.2;"><polygon points="504.43,728.42 504.43,629.38 441.43,616.38 441.43,728.42 "/></g><g id="Wall" class="Wall External" fill="#000000" stroke="#000000" style="fill-opacity: 1; stroke-opacity: 1; stroke-width: 0.2;"><polygon points="441.43,728.42 244.73,728.42 266.87,701.42 504.43,701.42 "/></g><g id="Wall" class="Wall" fill="#000000" stroke="#000000" style="fill-opacity: 1; stroke-opacity: 1; stroke-width: 0.2;"><polygon points="504.43,616.38 244.73,616.38 244.73,631.38 441.43,631.38 "/><g id="Door" fill="#ffffff" stroke="#000000" style="fill-opacity: 1; stroke-width: 1; stroke-opacity: 1;" class="Door None Beside"><polygon points="340.05,616.38 275.79,616.38 275.79,631.38 340.05,631.38 "/><g id="Threshold" stroke="#ffffff" style="" class="Threshold"><polygon points="340.05,616.38 275.79,616.38 275.79,631.38 340.05,631.38 "/></g></g><g id="Door" fill="#ffffff" stroke="#000000" style="fill-opacity: 1; stroke-width: 1; stroke-opacity: 1;" class="Door None Beside"><polygon points="435.51,616.38 371.25,616.38 371.25,631.38 435.51,631.38 "/><g id="Threshold" stroke="#ffffff" style="" class="Threshold"><polygon points="435.51,616.38 371.25,616.38 371.25,631.38 435.51,631.38 "/></g></g></g><g id="Wall" class="Wall External" fill="#000000" stroke="#000000" style="fill-opacity: 1; stroke-opacity: 1; stroke-width: 0.2;"><polygon points="266.87,616.38 84.39,616.38 59.39,639.27 244.73,639.27 "/></g><g id="Wall" class="Wall External" fill="#000000" stroke="#000000" style="fill-opacity: 1; stroke-opacity: 1; stroke-width: 0.2;"><polygon points="244.73,728.42 244.73,639.27 266.87,616.38 266.87,701.42 "/></g><g id="Wall" class="Wall" fill="#000000" stroke="#000000" style="fill-opacity: 1; stroke-opacity: 1; stroke-width: 0.2;"><polygon points="441.43,616.38 777.73,616.38 764.73,629.38 504.43,629.38 "/><g id="Door" fill="#ffffff" stroke="#000000" style="fill-opacity: 1; stroke-width: 1; stroke-opacity: 1;" class="Door Swing Beside"><polygon points="510.06,616.38 621.72,616.38 621.72,629.38 510.06,629.38 "/><g id="Threshold" class="Threshold"><polygon points="510.06,616.38 621.72,616.38 621.72,629.38 510.06,629.38 "/></g><g id="Panel" fill="none" style="" class="Panel Left Positive"><g id="PanelArea" fill="none" stroke="none" style="" class="PanelArea"><polygon points="510.06,616.38 621.72,616.38 621.72,629.38 510.06,629.38 "/></g><path d="M621.72,629.38 q0.00,111.66 -111.66,111.66 l0.00,-111.66Z"/></g></g><g id="Door" fill="#ffffff" stroke="#000000" style="fill-opacity: 1; stroke-width: 1; stroke-opacity: 1;" class="Door Swing Beside"><polygon points="647.33,616.38 759.34,616.38 759.34,629.38 647.33,629.38 "/><g id="Threshold" class="Threshold"><polygon points="647.33,616.38 759.34,616.38 759.34,629.38 647.33,629.38 "/></g><g id="Panel" fill="none" style="" class="Panel Right Positive"><g id="PanelArea" fill="none" stroke="none" style="" class="PanelArea"><polygon points="647.33,616.38 759.34,616.38 759.34,629.38 647.33,629.38 "/></g><path d="M647.33,629.38 q0.00,112.01 112.01,112.01 l0.00,-112.01Z"/></g></g></g><g id="Wall" class="Wall" fill="#000000" stroke="#000000" style="fill-opacity: 1; stroke-opacity: 1; stroke-width: 0.2;"><polygon points="764.73,629.38 764.73,924.80 777.73,924.80 777.73,616.38 "/><g id="Door" fill="#ffffff" stroke="#000000" style="fill-opacity: 1; stroke-width: 1; stroke-opacity: 1;" class="Door Swing Beside"><polygon points="764.73,735.14 764.73,820.72 777.73,820.72 777.73,735.14 "/><g id="Threshold" class="Threshold"><polygon points="764.73,735.14 764.73,820.72 777.73,820.72 777.73,735.14 "/></g><g id="Panel" fill="none" style="" class="Panel Left Negative"><g id="PanelArea" fill="none" stroke="none" style="" class="PanelArea"><polygon points="764.73,735.14 764.73,820.72 777.73,820.72 777.73,735.14 "/></g><path d="M764.73,735.14 q-85.58,0.00 -85.58,85.58 l85.58,0.00Z"/></g></g></g><g id="Wall" class="Wall" fill="#000000" stroke="#000000" style="fill-opacity: 1; stroke-opacity: 1; stroke-width: 0.2;"><polygon points="764.73,681.61 981.59,681.61 981.59,694.61 764.73,694.61 "/></g><g id="Wall" class="Wall" fill="#000000" stroke="#000000" style="fill-opacity: 1; stroke-opacity: 1; stroke-width: 0.2;"><polygon points="968.59,924.80 968.59,616.64 981.59,629.64 981.59,924.80 "/></g><g id="Wall" class="Wall" fill="#000000" stroke="#000000" style="fill-opacity: 1; stroke-opacity: 1; stroke-width: 0.2;"><polygon points="968.59,616.64 1223.86,616.64 1223.86,629.64 981.59,629.64 "/><g id="Door" fill="#ffffff" stroke="#000000" style="fill-opacity: 1; stroke-width: 1; stroke-opacity: 1;" class="Door None Beside"><polygon points="993.51,616.64 1097.48,616.64 1097.48,629.64 993.51,629.64 "/><g id="Threshold" stroke="#ffffff" style="" class="Threshold"><polygon points="993.51,616.64 1097.48,616.64 1097.48,629.64 993.51,629.64 "/></g></g></g><g id="Wall" class="Wall" fill="#000000" stroke="#000000" style="fill-opacity: 1; stroke-opacity: 1; stroke-width: 0.2;"><polygon points="1223.86,707.60 1127.46,707.60 1118.55,720.60 1223.86,720.60 "/></g><g id="Wall" class="Wall" fill="#000000" stroke="#000000" style="fill-opacity: 1; stroke-opacity: 1; stroke-width: 0.2;"><polygon points="1127.46,707.60 1127.46,616.64 1118.55,616.64 1118.55,720.60 "/><g id="Door" fill="#ffffff" stroke="#000000" style="fill-opacity: 1; stroke-width: 1; stroke-opacity: 1;" class="Door None Beside"><polygon points="1127.46,701.10 1127.46,637.78 1118.55,637.78 1118.55,701.10 "/><g id="Threshold" stroke="#ffffff" style="" class="Threshold"><polygon points="1127.46,701.10 1127.46,637.78 1118.55,637.78 1118.55,701.10 "/></g></g></g><g id="Wall" class="Wall" fill="#000000" stroke="#000000" style="fill-opacity: 1; stroke-opacity: 1; stroke-width: 0.2;"><polygon points="629.17,629.38 629.17,97.05 642.17,97.05 642.17,629.38 "/><g id="Door" fill="#ffffff" stroke="#000000" style="fill-opacity: 1; stroke-width: 1; stroke-opacity: 1;" class="Door Swing Beside"><polygon points="629.17,469.99 629.17,358.63 642.17,358.63 642.17,469.99 "/><g id="Threshold" class="Threshold"><polygon points="629.17,469.99 629.17,358.63 642.17,358.63 642.17,469.99 "/></g><g id="Panel" fill="none" style="" class="Panel Left Negative"><g id="PanelArea" fill="none" stroke="none" style="" class="PanelArea"><polygon points="629.17,469.99 629.17,358.63 642.17,358.63 642.17,469.99 "/></g><path d="M629.17,469.99 q-111.36,0.00 -111.36,-111.36 l111.36,0.00Z"/></g></g></g><g id="Wall" class="Wall" fill="#000000" stroke="#000000" style="fill-opacity: 1; stroke-opacity: 1; stroke-width: 0.2;"><polygon points="350.42,728.42 350.42,616.38 363.42,616.38 363.42,728.42 "/></g><g id="FixedFurnitureSet" transform="matrix(1,0,0,1,800.9314,694.7525)" class="FixedFurnitureSet"><g class="FixedFurniture BaseCabinet" fill="#ffffff" stroke="#000000" transform="matrix(1,0,0,1,0,0)" style="fill-opacity: 1; stroke-opacity: 1; stroke-width: 1;">
        <g class="BoundaryPolygon">
            <polygon points="0.00,0.00 61.64,0.00 61.64,48.57 0.00,48.57 "/>
        </g>
        <g class="Direction" fill-opacity="0.9" style="display: none;">
            <polygon points="32.88,44.68 32.88,34.07 29.87,34.07 29.87,44.68 26.07,44.68 31.37,49.48 36.68,44.68 32.88,44.68 " fill="#444444"/>
        </g> 
        <g class="Name" fill-opacity="0.9" style="display: none;">
            <text transform="translate(3 12)" font-size="12" font-family="Verdana, Sans-Serif">CB</text>
        </g>
        <desc>Width:60 Height:5 Depth:60 Elevation:105</desc>
    </g><g class="FixedFurniture Sink" fill="#ffffff" stroke="#000000" transform="matrix(1,0,0,1,0,0)" style="fill-opacity: 1; stroke-opacity: 1; stroke-width: 1;">
        <g class="BoundaryPolygon" fill="none" stroke="none">
        <polygon points="0.00,0.00 61.64,0.00 61.64,48.57 0.00,48.57 "/>
        </g>
        <g class="InnerPolygon">
            <polygon points="5.14,9.70 56.50,9.70 56.50,44.28 5.14,44.28 "/>
        </g>
        <g class="OuterDrain" stroke-width="0.8">
            <circle cx="30.818353840523383" cy="26.065811815092662" r="3.5"/>
        </g>
        <g class="InnerDrain" stroke-width="0.8">
            <circle cx="30.818353840523383" cy="26.065811815092662" r="2"/>
        </g>
        <g class="Faucet">
            <polygon points="27.74,4.05 33.74,4.05 33.74,18.05 27.74,18.05 "/>
        </g>
        <g class="Direction" fill-opacity="0.9" style="display: none;">
            <polygon points="32.88,44.68 32.88,34.07 29.87,34.07 29.87,44.68 26.07,44.68 31.37,49.48 36.68,44.68 32.88,44.68 " fill="#444444"/>
        </g> 
        <g class="Name" fill-opacity="0.9" style="display: none;">
            <text transform="translate(3 12)" font-size="12" font-family="Verdana, Sans-Serif">SINK</text>
        </g>
        <desc>Width:60 Height:90 Depth:60 Elevation:0</desc>
    </g></g><g id="FixedFurnitureSet" transform="matrix(-1,0,0,-1,968.5293,681.5338)" class="FixedFurnitureSet"><g class="FixedFurniture Closet" fill="#ffffff" stroke="#000000" transform="matrix(1,0,0,1,0,0)" style="fill-opacity: 1; stroke-opacity: 1; stroke-width: 1;">
        <g class="BoundaryPolygon">
            <polygon points="0.00,0.00 63.60,0.00 63.60,64.70 0.00,64.70 "/>
        </g>
        <g class="Direction" fill-opacity="0.9" style="display: none;">
            <polygon points="33.40,58.98 33.40,48.37 30.39,48.37 30.39,58.98 26.59,58.98 31.89,64.29 37.19,58.98 33.40,58.98 " fill="#444444"/>
        </g> 
        <g class="Name" fill-opacity="0.9" style="display: none;">
            <text transform="translate(3 12)" font-size="12" font-family="Verdana, Sans-Serif">CL</text>
        </g>
        <desc>Width:60 Height:200 Depth:60 Elevation:0</desc>
    </g><g class="FixedFurniture Closet" fill="#ffffff" stroke="#000000" transform="matrix(1,0,0,1,63.6007,0)" style="fill-opacity: 1; stroke-opacity: 1; stroke-width: 1;">
        <g class="BoundaryPolygon">
            <polygon points="0.00,0.00 63.60,0.00 63.60,64.70 0.00,64.70 "/>
        </g>
        <g class="Direction" fill-opacity="0.9" style="display: none;">
            <polygon points="33.40,58.98 33.40,48.37 30.39,48.37 30.39,58.98 26.59,58.98 31.89,64.29 37.19,58.98 33.40,58.98 " fill="#444444"/>
        </g> 
        <g class="Name" fill-opacity="0.9" style="display: none;">
            <text transform="translate(3 12)" font-size="12" font-family="Verdana, Sans-Serif">CL</text>
        </g>
        <desc>Width:60 Height:200 Depth:60 Elevation:0</desc>
    </g><g class="FixedFurniture Closet" fill="#ffffff" stroke="#000000" transform="matrix(1,0,0,1,127.2013,0)" style="fill-opacity: 1; stroke-opacity: 1; stroke-width: 1;">
        <g class="BoundaryPolygon">
            <polygon points="0.00,0.00 63.60,0.00 63.60,64.70 0.00,64.70 "/>
        </g>
        <g class="Direction" fill-opacity="0.9" style="display: none;">
            <polygon points="33.40,58.98 33.40,48.37 30.39,48.37 30.39,58.98 26.59,58.98 31.89,64.29 37.19,58.98 33.40,58.98 " fill="#444444"/>
        </g> 
        <g class="Name" fill-opacity="0.9" style="display: none;">
            <text transform="translate(3 12)" font-size="12" font-family="Verdana, Sans-Serif">CL</text>
        </g>
        <desc>Width:60 Height:200 Depth:60 Elevation:0</desc>
     </g></g><g class="FixedFurniture Closet" fill="#ffffff" stroke="#000000" transform="matrix(-1,0,0,-1,350.4634,701.4219)" style="fill-opacity: 1; stroke-opacity: 1; stroke-width: 1;">
        <g class="BoundaryPolygon">
            <polygon points="0.00,0.00 83.59,0.00 83.59,70.41 0.00,70.41 "/>
        </g>
        <g class="Direction" fill-opacity="0.9" style="display: none;">
            <polygon points="43.90,64.19 43.90,53.57 40.89,53.57 40.89,64.19 37.09,64.19 42.39,69.49 47.69,64.19 43.90,64.19 " fill="#444444"/>
        </g> 
        <g class="Name" fill-opacity="0.9" style="display: none;">
            <text transform="translate(3 12)" font-size="12" font-family="Verdana, Sans-Serif">CL</text>
        </g>
        <desc>Width:60 Height:200 Depth:60 Elevation:0</desc>
     </g><g class="FixedFurniture Closet" fill="#ffffff" stroke="#000000" transform="matrix(-1,0,0,-1,442.1516,701.4219)" style="fill-opacity: 1; stroke-opacity: 1; stroke-width: 1;">
        <g class="BoundaryPolygon">
            <polygon points="0.00,0.00 78.73,0.00 78.73,70.41 0.00,70.41 "/>
        </g>
        <g class="Direction" fill-opacity="0.9" style="display: none;">
            <polygon points="41.35,64.19 41.35,53.57 38.34,53.57 38.34,64.19 34.54,64.19 39.84,69.49 45.14,64.19 41.35,64.19 " fill="#444444"/>
        </g> 
        <g class="Name" fill-opacity="0.9" style="display: none;">
            <text transform="translate(3 12)" font-size="12" font-family="Verdana, Sans-Serif">CL</text>
        </g>
        <desc>Width:60 Height:200 Depth:60 Elevation:0</desc>
     </g><g class="FixedFurniture CoatCloset" fill="#ffffff" stroke="#000000" transform="matrix(-1,0,0,-1,764.728,892.1199)" style="fill-opacity: 1; stroke-opacity: 1; stroke-width: 1;">
        <g class="BoundaryPolygon">
            <polygon points="0.00,0.00 129.83,0.00 129.83,31.83 0.00,31.83 "/>
        </g>
        <g class="Hanger" fill="#ffffff" stroke="#9a9a9a" stroke-dasharray="5,5">
            <line x1="0" y1="15.91269315614997" x2="129.82896328279995" y2="15.91269315614997"/>
        </g>
        <g class="Direction" fill-opacity="0.9" style="display: none;">
            <polygon points="66.55,28.92 66.55,18.30 63.54,18.30 63.54,28.92 59.74,28.92 65.04,34.22 70.34,28.92 66.55,28.92 " fill="#444444"/>
        </g> 
        <g class="Name" fill-opacity="0.9" style="display: none;">
            <text transform="translate(3 12)" font-size="12" font-family="Verdana, Sans-Serif">CWH</text>
        </g>
        <desc>Width:120 Height:200 Depth:60 Elevation:0</desc>
     </g><g class="FixedFurniture Toilet" fill="#ffffff" stroke="#000000" transform="matrix(-1.2415,0,0,-1.1255,857.1763,883.934)" style="fill-opacity: 1; stroke-opacity: 1; stroke-width: 1;">
	   <g class="BoundaryPolygon" fill="none" stroke="none"> 
            <polygon points="0,0 41,0 41,71 0,71"/>
		</g>
        <g class="InnerPolygon">
            <rect x="0.502" y="0.5" width="39.989" height="17.98"/>
            <path d="M40.491,44.237S41.619,70.5,20.907,70.5C-.523,70.5.6,44.237.6,44.237L.5,18.48H40.491Z"/>
            <rect x="17.318" y="7.975" width="6.357" height="3.03"/>
        </g>
        <desc>Width:41 Height:85 Depth:71 Elevation:0</desc>
    </g><g class="FixedFurniture ElectricalAppliance SpaceForAppliance2" fill="#ffffff" stroke="#000000" stroke-dasharray="4,4" transform="matrix(-1.2365,0,0,-1.0495,962.3721,875.6301)" style="fill-opacity: 1; stroke-opacity: 1; stroke-width: 1;">
	    <g class="BoundaryPolygon"> 
		    <polygon points="0,0 60,0 60,60 0,60"/>
		</g>	
	    <g class="electricitySign" fill="none">
            <path d="M0,0,30.1,39.8V19.4L59.9,60"/>
		</g>
        <g class="Direction" fill-opacity="0.9" style="display: none;">
            <polygon points="32.009 55.197 32.009 44.581 29 44.581 29 55.197 25.197 55.197 30.5 60 35.803 55.197 32.009 55.197" fill="#444444"/>
        </g> 
        <g class="Name" fill-opacity="0.9" stroke-dasharray="none" style="display: none;">
            <text transform="translate(3 12)" font-size="12" font-family="Verdana, Sans-Serif">SFA</text>
        </g>
        <desc>Width:60 Height:90 Depth:60 Elevation:0</desc>
	</g><g class="FixedFurniture Shower" fill="#ffffff" stroke="#000000" transform="matrix(1,0,0,1,906.6441,694.612)" style="fill-opacity: 1; stroke-opacity: 1; stroke-width: 1;"> 
	    <g class="BoundaryPolygon" fill="none" stroke="none">
            <polygon points="0,0 32,0 32,19 0,19"/>
        </g>
        <g class="InnerPolygon"> 
			<rect x="3.7" y="0.5" width="11.2" height="6.1"/>
			<rect x="17.6" y="0.5" width="11.2" height="6.1"/>
			<rect x="28.7" y="0.5" width="3.4" height="6.1"/>
			<rect x="0.5" y="0.5" width="3.2" height="6.1"/>
			<path d="M14.9,8.5c0,1.5-0.4,3.3-1.6,5    c-0.4,0.6-1,1.1-1.1,1.7c-0.2,1.1,0.3,2.8,2.5,3.2c0.5,0.1,1.3,0.1,1.6,0.1h-0.1c0.3,0,1.1,0,1.6-0.1c2.2-0.4,2.7-2.1,2.5-3.2    c-0.1-0.6-0.7-1.1-1.1-1.7c-1.2-1.7-1.6-3.5-1.6-5"/>
			<path d="M12.2,15.3c0.1,0.2,1.6,1.9,4.2,1.9 c2.4-0.1,3.7-1.7,3.9-1.9"/>
			<path d="M14.9,0.5h2.7v8c-0.9,0-1.8,0-2.7,0l0,0 C14.9,5.9,14.9,3.2,14.9,0.5z"/>
		</g>
	    <g class="Indicator"> 
			<path d="M3.7,3.6C5,3.1,5.2,3,5.2,3 c0,1.1,0,0,0,1.1C5.2,4.1,5.1,4.1,3.7,3.6"/>
			<path d="M28.7,3.6 C27.4,3.1,27.2,3,27.2,3c0,1.1,0,0,0,1.1C27.2,4.1,27.3,4.1,28.7,3.6"/>	
		</g>
        <desc>Width:32 Height:97 Depth:19 Elevation:135</desc>
	</g><g class="FixedFurniture Closet" fill="#ffffff" stroke="#000000" transform="matrix(0,1,-1,0,1179.194,629.6424)" style="fill-opacity: 1; stroke-opacity: 1; stroke-width: 1;">
        <g class="BoundaryPolygon">
            <polygon points="0.00,0.00 77.53,0.00 77.53,52.11 0.00,52.11 "/>
        </g>
        <g class="Direction" fill-opacity="0.9" style="display: none;">
            <polygon points="40.71,47.51 40.71,36.89 37.70,36.89 37.70,47.51 33.90,47.51 39.20,52.81 44.51,47.51 40.71,47.51 " fill="#444444"/>
        </g> 
        <g class="Name" fill-opacity="0.9" style="display: none;">
            <text transform="translate(3 12)" font-size="12" font-family="Verdana, Sans-Serif">CL</text>
        </g>
        <desc>Width:60 Height:200 Depth:60 Elevation:0</desc>
     </g><g transform="matrix(1,0,0,1,1180.1418,720.6846)" class="FixedFurniture BaseCabinet" fill="#ffffff" stroke="#000000" style="fill-opacity: 1; stroke-opacity: 1; stroke-width: 1;"><desc>Width:60 Height:90 Depth:60 Elevation:0</desc><g class="BoundaryPolygon"><polygon points="0.00,0.00 -61.10,-0.08 -61.10,96.51 -197.74,96.51 -197.74,171.19 -0.35,171.53 0.00,0.00 "/></g></g><g class="FixedFurniture ElectricalAppliance IntegratedStove" fill="#ffffff" stroke="#000000" transform="matrix(-1,0,0,-1,1044.4672,892.2145)" style="fill-opacity: 1; stroke-opacity: 1; stroke-width: 1;">
        <g class="BoundaryPolygon" fill="none" stroke="none">
            <polygon points="0.00,0.00 63.84,0.00 63.84,78.38 0.00,78.38 "/>
        </g>
        <g class="InnerPolygon">
            <polygon points="2.00,2.00 61.71,2.00 61.71,75.76 2.00,75.76 "/>
        </g>
        <g class="OuterCircle">
            <circle cx="17.024823935500216" cy="20.90066182690325" r="8"/>
            <circle cx="46.81826582262557" cy="20.90066182690325" r="8"/>
            <circle cx="17.024823935500216" cy="57.47682002398397" r="8"/>
            <circle cx="46.81826582262557" cy="57.47682002398397" r="8"/>
        </g>
        <g class="Direction" fill-opacity="0.9" style="display: none;">
            <polygon points="34.06,72.10 34.06,61.49 31.05,61.49 31.05,72.10 27.25,72.10 32.55,76.91 37.85,72.10 34.06,72.10 " fill="#444444"/>
        </g> 
        <g class="Name" fill-opacity="0.9" style="display: none;">
            <text transform="translate(3 12)" font-size="12" font-family="Verdana, Sans-Serif">INT_STOVE</text>
        </g>
        <desc>Width:60 Height:90 Depth:30 Elevation:0</desc>
    </g><g class="FixedFurniture DoubleSink" fill="#ffffff" stroke="#000000" transform="matrix(-1,0,0,-1,1135.9043,882.2482)" style="fill-opacity: 1; stroke-opacity: 1; stroke-width: 1;">
        <g class="BoundaryPolygon" fill="none" stroke="none">
            <polygon points="0.00,0.00 93.58,0.00 93.58,58.77 0.00,58.77 "/>
        </g>
        <g class="InnerPolygonLeft">
            <polygon points="6.68,9.90 44.79,9.90 44.79,53.78 6.68,53.78 "/>
        </g>
        <g class="InnerPolygonRight">
            <polygon points="48.80,10.00 86.90,10.00 86.90,53.87 48.80,53.87 "/>
        </g>
        <g class="OuterDrain" stroke-width="0.8">
            <circle cx="26.337333861812127" cy="31.835159910777953" r="3.5"/>
            <circle cx="67.11340913009997" cy="31.835159910777953" r="3.5"/>
        </g>
        <g class="InnerDrain" stroke-width="0.8">
            <circle cx="26.337333861812127" cy="31.835159910777953" r="2"/>
            <circle cx="67.11340913009997" cy="31.835159910777953" r="2"/>
        </g>
        <g class="Faucet">
            <polygon points="42.78,4.80 48.78,4.80 48.78,18.80 42.78,18.80 "/>
        </g>
        <g class="Direction" fill-opacity="0.9" style="display: none;">
            <polygon points="48.81,53.58 48.81,42.96 45.80,42.96 45.80,53.58 42.00,53.58 47.30,58.88 52.60,53.58 48.81,53.58 " fill="#444444"/>
        </g> 
        <g class="Name" fill-opacity="0.9" style="display: none;">
            <text transform="translate(3 12)" font-size="12" font-family="Verdana, Sans-Serif">DSINK</text>
        </g>
        <desc>Width:70 Height:90 Depth:60 Elevation:0</desc>
    </g><g class="FixedFurniture WallCabinet" fill="#ffffff" stroke="#000000" transform="matrix(0,1,-1,0,1180.0481,720.6035)" style="fill-opacity: 0.7; stroke-opacity: 1; stroke-width: 1.5;">	
        <g class="BoundaryPolygon">
            <polygon points="0.00,0.00 171.08,0.00 171.08,37.88 0.00,37.88 "/>
        </g>
        <g class="Direction" fill-opacity="0.9" style="display: none;">
            <polygon points="91.27,31.82 91.27,21.20 88.26,21.20 88.26,31.82 84.46,31.82 89.76,36.62 95.06,31.82 91.27,31.82 " fill="#444444"/>
        </g> 
        <g class="Name" fill-opacity="0.9" style="display: none;">
            <text transform="translate(3 12)" font-size="12" font-family="Verdana, Sans-Serif">UC</text>
        </g>
        <desc>Width:60 Height:60 Depth:30 Elevation:140</desc>
    </g><g class="FixedFurniture WallCabinet" fill="#ffffff" stroke="#000000" transform="matrix(-1,0,0,-1,1126.0141,892.0261)" style="fill-opacity: 0.7; stroke-opacity: 1; stroke-width: 1.5;">	
        <g class="BoundaryPolygon">
            <polygon points="0.00,0.00 101.95,0.00 101.95,38.54 0.00,38.54 "/>
        </g>
        <g class="Direction" fill-opacity="0.9" style="display: none;">
            <polygon points="54.39,32.37 54.39,21.76 51.38,21.76 51.38,32.37 47.58,32.37 52.88,37.17 58.18,32.37 54.39,32.37 " fill="#444444"/>
        </g> 
        <g class="Name" fill-opacity="0.9" style="display: none;">
            <text transform="translate(3 12)" font-size="12" font-family="Verdana, Sans-Serif">UC</text>
        </g>
        <desc>Width:60 Height:60 Depth:30 Elevation:140</desc>
    </g></g></g></g></svg>
