<?xml version="1.0"?>
<svg xmlns="http://www.w3.org/2000/svg" xmlns:xlink="http://www.w3.org/1999/xlink" height="1037.5100021362305" version="1.1" width="1647.5677108764648" id="temp" viewBox="0 0 1647.5677108764648 1037.5100021362305"><desc>Powered by CubiCasa</desc><defs/><g id="Model" class="Model v1-1"><g class="Floor"><g id="Floor-1" class="Floorplan Floor-1"><g id="e6a783e3-e6b3-482b-adad-192463b157ad" fill="#ffffff" stroke="#000000" style="fill-opacity: 1; stroke-opacity: 1; stroke-width: 0.2;" class="Space Outdoor"><polygon points="1394.98,931.37 1567.85,931.37 1567.85,501.20 1394.98,501.20 1394.98,931.37 "/><g transform="matrix(1,0,0,1,1394.9761,501.2034)" class="Dimension"><g transform="matrix(1,0,0,1,0,0)" style="display: none;" class="Visual"><g id="mark1" fill="#000000" stroke="none" transform="matrix(1,0,0,1,86.4353,0)" style="fill-opacity: 1; pointer-events: visible;" class="DimensionMark"><polygon points="-5,5,0,0,5,5"/></g><g id="mark2" fill="#000000" stroke="none" transform="matrix(1,0,0,1,172.8707,215.082)" style="fill-opacity: 1; pointer-events: visible;" class="DimensionMark"><polygon points="-5,-5,0,0,-5,5"/></g><g id="mark3" fill="#000000" stroke="none" transform="matrix(1,0,0,1,86.4353,430.164)" style="fill-opacity: 1; pointer-events: visible;" class="DimensionMark"><polygon points="-5,-5,0,0,5,-5"/></g><g id="mark4" fill="#000000" stroke="none" transform="matrix(1,0,0,1,0,215.082)" style="fill-opacity: 1; pointer-events: visible;" class="DimensionMark"><polygon points="5,5,0,0,5,-5"/></g></g><g transform="matrix(1,0,0,1,86.4354,86.4354)" class="SpaceDimensionsLabel"><g id="NameLabel" style="display: block;" class="TextLabel NameLabel"><text x="0" y="0em" fill="#000000" stroke="none" style="font-family: Verdana; font-size: 33px; fill-opacity: 1; cursor: default;">ULKOTILA</text></g><g id="DimensionMeasureLabel" transform="matrix(1,0,0,1,-15.125,40.1718)" style="display: none;" class="TextLabel DimensionMeasureLabel"><text x="0" y="0em" fill="#000000" stroke="none" style="font-family: Verdana; font-size: 33px; fill-opacity: 1; cursor: default;">5'8" x 14'1"</text><text x="0" y="0"/></g></g></g></g><g id="5a888881-8430-4c95-bbfa-48797a7692f2" fill="#ffffff" stroke="#ffffff" style="fill-opacity: 1; stroke-opacity: 1; stroke-width: 0.2;" class="Space Undefined"><polygon points="784.01,643.97 780.42,643.97 780.42,930.37 547.62,930.37 547.62,383.11 784.01,383.11 "/><g transform="matrix(1,0,0,1,547.6221,383.1109)" class="Dimension"><g transform="matrix(1,0,0,1,0,0)" style="display: none;" class="Visual"><g id="mark1" fill="#000000" stroke="none" transform="matrix(1,0,0,1,118.1932,0)" style="fill-opacity: 1; pointer-events: visible;" class="DimensionMark"><polygon points="-5,5,0,0,5,5"/></g><g id="mark2" fill="#000000" stroke="none" transform="matrix(1,0,0,1,232.7945,273.6283)" style="fill-opacity: 1; pointer-events: visible;" class="DimensionMark"><polygon points="-5,-5,0,0,-5,5"/></g><g id="mark3" fill="#000000" stroke="none" transform="matrix(1,0,0,1,118.1932,547.2566)" style="fill-opacity: 1; pointer-events: visible;" class="DimensionMark"><polygon points="-5,-5,0,0,5,-5"/></g><g id="mark4" fill="#000000" stroke="none" transform="matrix(1,0,0,1,0,273.6283)" style="fill-opacity: 1; pointer-events: visible;" class="DimensionMark"><polygon points="5,5,0,0,5,-5"/></g></g><g transform="matrix(1,0,0,1,118.1932,118.1932)" class="SpaceDimensionsLabel"><g id="NameLabel" style="display: block;" class="TextLabel NameLabel"><text x="0" y="0em" fill="#000000" stroke="none" style="font-family: Verdana; font-size: 33px; fill-opacity: 1; cursor: default;">UNDEFINED</text></g><g id="DimensionMeasureLabel" transform="matrix(1,0,0,1,-8.8281,40.3282)" style="display: none;" class="TextLabel DimensionMeasureLabel"><text x="0" y="0em" fill="#000000" stroke="none" style="font-family: Verdana; font-size: 33px; fill-opacity: 1; cursor: default;">7'8" x 17'11"</text><text x="0" y="0"/></g></g></g></g><g id="ba8a006a-0f97-451a-9206-a281a821b95a" fill="#ffffff" stroke="#ffffff" style="fill-opacity: 1; stroke-opacity: 1; stroke-width: 0.2;" class="Space LivingRoom"><polygon points="1363.98,930.37 789.42,930.37 789.42,643.97 784.01,643.97 784.01,501.20 1363.98,501.20 "/><g transform="matrix(1,0,0,1,789.4166,501.2034)" class="Dimension"><g transform="matrix(1,0,0,1,0,0)" style="display: none;" class="Visual"><g id="mark1" fill="#000000" stroke="none" transform="matrix(1,0,0,1,284.5757,0)" style="fill-opacity: 1; pointer-events: visible;" class="DimensionMark"><polygon points="-5,5,0,0,5,5"/></g><g id="mark2" fill="#000000" stroke="none" transform="matrix(1,0,0,1,574.5595,214.582)" style="fill-opacity: 1; pointer-events: visible;" class="DimensionMark"><polygon points="-5,-5,0,0,-5,5"/></g><g id="mark3" fill="#000000" stroke="none" transform="matrix(1,0,0,1,284.5757,429.164)" style="fill-opacity: 1; pointer-events: visible;" class="DimensionMark"><polygon points="-5,-5,0,0,5,-5"/></g><g id="mark4" fill="#000000" stroke="none" transform="matrix(1,0,0,1,0,214.582)" style="fill-opacity: 1; pointer-events: visible;" class="DimensionMark"><polygon points="5,5,0,0,5,-5"/></g></g><g transform="matrix(1,0,0,1,260.3525,202.7504)" class="SpaceDimensionsLabel" style="display: block;"><g id="NameLabel" style="display: block;" class="TextLabel NameLabel"><text x="0" y="0em" fill="#000000" stroke="none" style="font-family: Verdana; font-size: 33px; fill-opacity: 1; cursor: default;">OH</text></g><g id="DimensionMeasureLabel" transform="matrix(1,0,0,1,-93.4062,39.0156)" style="display: none;" class="TextLabel DimensionMeasureLabel"><text x="0" y="0em" fill="#000000" stroke="none" style="font-family: Verdana; font-size: 33px; fill-opacity: 1; cursor: default;">18'10" x 14'1"</text><text x="0" y="0"/></g></g></g></g><g id="60d3d676-c241-4cbc-a840-28df4dde80ae" fill="#ffffff" stroke="#ffffff" style="fill-opacity: 1; stroke-opacity: 1; stroke-width: 0.2;" class="Space Bath"><polygon points="783.57,374.11 547.62,374.11 547.62,155.47 783.57,155.47 "/><g transform="matrix(1,0,0,1,547.6221,155.4698)" class="Dimension"><g transform="matrix(1,0,0,1,0,0)" style="display: none;" class="Visual"><g id="mark1" fill="#000000" stroke="none" transform="matrix(1,0,0,1,117.9746,0)" style="fill-opacity: 1; pointer-events: visible;" class="DimensionMark"><polygon points="-5,5,0,0,5,5"/></g><g id="mark2" fill="#000000" stroke="none" transform="matrix(1,0,0,1,235.9493,109.3205)" style="fill-opacity: 1; pointer-events: visible;" class="DimensionMark"><polygon points="-5,-5,0,0,-5,5"/></g><g id="mark3" fill="#000000" stroke="none" transform="matrix(1,0,0,1,117.9746,218.641)" style="fill-opacity: 1; pointer-events: visible;" class="DimensionMark"><polygon points="-5,-5,0,0,5,-5"/></g><g id="mark4" fill="#000000" stroke="none" transform="matrix(1,0,0,1,0,109.3205)" style="fill-opacity: 1; pointer-events: visible;" class="DimensionMark"><polygon points="5,5,0,0,5,-5"/></g></g><g transform="matrix(1,0,0,1,103.2725,135.9245)" class="SpaceDimensionsLabel" style="display: block;"><g id="NameLabel" style="display: block;" class="TextLabel NameLabel"><text x="0" y="0em" fill="#000000" stroke="none" style="font-family: Verdana; font-size: 33px; fill-opacity: 1; cursor: default;">KH</text></g><g id="DimensionMeasureLabel" transform="matrix(1,0,0,1,-63.4921,40.3281)" style="display: none;" class="TextLabel DimensionMeasureLabel"><text x="0" y="0em" fill="#000000" stroke="none" style="font-family: Verdana; font-size: 33px; fill-opacity: 1; cursor: default;">7'9" x 7'2"</text><text x="0" y="0"/></g></g></g></g><g id="f71b2e2d-adc7-49ea-8f4f-fd053c74edd5" fill="#ffffff" stroke="#ffffff" style="fill-opacity: 1; stroke-opacity: 1; stroke-width: 0.2;" class="Space Kitchen"><polygon points="1363.98,486.20 793.01,486.20 793.01,155.47 784.01,155.47 784.01,374.11 783.57,374.11 783.57,155.47 1363.98,155.47 "/><g transform="matrix(1,0,0,1,783.5714,155.4698)" class="Dimension"><g transform="matrix(1,0,0,1,0,0)" style="display: none;" class="Visual"><g id="mark1" fill="#000000" stroke="none" transform="matrix(1,0,0,1,290.2024,0)" style="fill-opacity: 1; pointer-events: visible;" class="DimensionMark"><polygon points="-5,5,0,0,5,5"/></g><g id="mark2" fill="#000000" stroke="none" transform="matrix(1,0,0,1,580.4048,165.3668)" style="fill-opacity: 1; pointer-events: visible;" class="DimensionMark"><polygon points="-5,-5,0,0,-5,5"/></g><g id="mark3" fill="#000000" stroke="none" transform="matrix(1,0,0,1,290.2024,330.7336)" style="fill-opacity: 1; pointer-events: visible;" class="DimensionMark"><polygon points="-5,-5,0,0,5,-5"/></g><g id="mark4" fill="#000000" stroke="none" transform="matrix(1,0,0,1,0,165.3668)" style="fill-opacity: 1; pointer-events: visible;" class="DimensionMark"><polygon points="5,5,0,0,5,-5"/></g></g><g transform="matrix(1,0,0,1,210.2599,175.9024)" class="SpaceDimensionsLabel" style="display: block;"><g id="NameLabel" style="display: block;" class="TextLabel NameLabel"><text x="0" y="0em" fill="#000000" stroke="none" style="font-family: Verdana; font-size: 33px; fill-opacity: 1; cursor: default;">KEITTI&#xD6;</text></g><g id="DimensionMeasureLabel" transform="matrix(1,0,0,1,-50.2813,39.0156)" style="display: none;" class="TextLabel DimensionMeasureLabel"><text x="0" y="0em" fill="#000000" stroke="none" style="font-family: Verdana; font-size: 33px; fill-opacity: 1; cursor: default;">19'1" x 10'10"</text><text x="0" y="0"/></g></g></g></g><g id="e8568293-1358-400c-aa1a-6da8b70370b0" fill="#ffffff" stroke="#ffffff" style="fill-opacity: 1; stroke-opacity: 1; stroke-width: 0.2;" class="Space Bedroom"><polygon points="537.62,930.37 109.54,930.37 109.54,501.20 537.62,501.20 "/><g transform="matrix(1,0,0,1,109.5408,501.2034)" class="Dimension"><g transform="matrix(1,0,0,1,0,0)" style="display: none;" class="Visual"><g id="mark1" fill="#000000" stroke="none" transform="matrix(1,0,0,1,214.0406,0)" style="fill-opacity: 1; pointer-events: visible;" class="DimensionMark"><polygon points="-5,5,0,0,5,5"/></g><g id="mark2" fill="#000000" stroke="none" transform="matrix(1,0,0,1,428.0813,214.582)" style="fill-opacity: 1; pointer-events: visible;" class="DimensionMark"><polygon points="-5,-5,0,0,-5,5"/></g><g id="mark3" fill="#000000" stroke="none" transform="matrix(1,0,0,1,214.0406,429.164)" style="fill-opacity: 1; pointer-events: visible;" class="DimensionMark"><polygon points="-5,-5,0,0,5,-5"/></g><g id="mark4" fill="#000000" stroke="none" transform="matrix(1,0,0,1,0,214.582)" style="fill-opacity: 1; pointer-events: visible;" class="DimensionMark"><polygon points="5,5,0,0,5,-5"/></g></g><g transform="matrix(1,0,0,1,190.3627,198.2553)" class="SpaceDimensionsLabel" style="display: block;"><g id="NameLabel" style="display: block;" class="TextLabel NameLabel"><text x="0" y="0em" fill="#000000" stroke="none" style="font-family: Verdana; font-size: 33px; fill-opacity: 1; cursor: default;">MH</text></g><g id="DimensionMeasureLabel" transform="matrix(1,0,0,1,-81.9844,39.4531)" style="display: none;" class="TextLabel DimensionMeasureLabel"><text x="0" y="0em" fill="#000000" stroke="none" style="font-family: Verdana; font-size: 33px; fill-opacity: 1; cursor: default;">14'1" x 14'1"</text><text x="0" y="0"/></g></g></g></g><g id="97f666e1-a11c-4f7b-840a-ee6e25d2bb5f" fill="#ffffff" stroke="#ffffff" style="fill-opacity: 1; stroke-opacity: 1; stroke-width: 0.2;" class="Space Bedroom"><polygon points="537.62,484.20 109.54,484.20 109.54,155.47 537.62,155.47 "/><g transform="matrix(1,0,0,1,109.5408,155.4698)" class="Dimension"><g transform="matrix(1,0,0,1,0,0)" style="display: none;" class="Visual"><g id="mark1" fill="#000000" stroke="none" transform="matrix(1,0,0,1,214.0406,0)" style="fill-opacity: 1; pointer-events: visible;" class="DimensionMark"><polygon points="-5,5,0,0,5,5"/></g><g id="mark2" fill="#000000" stroke="none" transform="matrix(1,0,0,1,428.0813,164.3668)" style="fill-opacity: 1; pointer-events: visible;" class="DimensionMark"><polygon points="-5,-5,0,0,-5,5"/></g><g id="mark3" fill="#000000" stroke="none" transform="matrix(1,0,0,1,214.0406,328.7336)" style="fill-opacity: 1; pointer-events: visible;" class="DimensionMark"><polygon points="-5,-5,0,0,5,-5"/></g><g id="mark4" fill="#000000" stroke="none" transform="matrix(1,0,0,1,0,164.3668)" style="fill-opacity: 1; pointer-events: visible;" class="DimensionMark"><polygon points="5,5,0,0,5,-5"/></g></g><g transform="matrix(1,0,0,1,183.5975,170.0044)" class="SpaceDimensionsLabel" style="display: block;"><g id="NameLabel" style="display: block;" class="TextLabel NameLabel"><text x="0" y="0em" fill="#000000" stroke="none" style="font-family: Verdana; font-size: 33px; fill-opacity: 1; cursor: default;">MH</text></g><g id="DimensionMeasureLabel" transform="matrix(1,0,0,1,-82,39.8906)" style="display: none;" class="TextLabel DimensionMeasureLabel"><text x="0" y="0em" fill="#000000" stroke="none" style="font-family: Verdana; font-size: 33px; fill-opacity: 1; cursor: default;">14'1" x 10'9"</text><text x="0" y="0"/></g></g></g></g><g id="Wall" fill="#000000" stroke="#000000" style="fill-opacity: 1; stroke-opacity: 1; stroke-width: 0.2;" class="Wall External"><polygon points="109.54,155.47 1363.98,155.47 1394.98,118.47 82.54,118.47 "/><g id="Window" fill="#f0f0ff" stroke="#000000" style="fill-opacity: 1; stroke-width: 1; stroke-opacity: 1;" class="Window Regular"><polygon points="611.49,155.47 678.63,155.47 678.63,118.47 611.49,118.47 "/><g id="Glass" class="Glass"><polygon points="611.49,155.47 678.63,155.47 678.63,118.47 611.49,118.47 "/></g><g id="Panel" class="Panel"><line x1="618.9912908936644" x2="671.1281994250762" y1="136.96983734787366" y2="136.96983734787364"/><line x1="618.9912908936644" x2="618.9912908936644" y1="155.46983734787366" y2="118.46983734787366"/><line x1="671.1281994250762" x2="671.1281994250762" y1="155.46983734787364" y2="118.46983734787364"/></g></g><g id="Window" fill="#f0f0ff" stroke="#000000" style="fill-opacity: 1; stroke-width: 1; stroke-opacity: 1;" class="Window Regular"><polygon points="957.37,155.47 1027.91,155.47 1027.91,118.47 957.37,118.47 "/><g id="Glass" class="Glass"><polygon points="957.37,155.47 1027.91,155.47 1027.91,118.47 957.37,118.47 "/></g><g id="Panel" class="Panel"><line x1="964.8738401104258" x2="1020.4100857826686" y1="136.9698373478736" y2="136.96983734787358"/><line x1="964.8738401104258" x2="964.8738401104258" y1="155.4698373478736" y2="118.46983734787361"/><line x1="1020.4100857826686" x2="1020.4100857826686" y1="155.46983734787358" y2="118.46983734787358"/></g></g></g><g id="Wall" fill="#000000" stroke="#000000" style="fill-opacity: 1; stroke-opacity: 1; stroke-width: 0.2;" class="Wall External"><polygon points="1363.98,155.47 1363.98,930.37 1394.98,947.37 1394.98,118.47 "/><g id="Door" fill="#ffffff" stroke="#000000" style="fill-opacity: 1; stroke-width: 1; stroke-opacity: 1;" class="Door Swing Beside"><polygon points="1363.98,578.18 1363.98,665.18 1394.98,665.18 1394.98,578.18 "/><g id="Threshold" class="Threshold"><polygon points="1363.98,578.18 1363.98,665.18 1394.98,665.18 1394.98,578.18 "/></g><g id="Panel" fill="none" style="" class="Panel Left Positive"><g id="PanelArea" fill="none" stroke="none" style="" class="PanelArea"><polygon points="1363.98,578.18 1363.98,665.18 1394.98,665.18 1394.98,578.18 "/></g><path d="M1394.98,665.18 q87.00,0.00 87.00,-87.00 l-87.00,0.00Z"/></g></g><g id="Window" fill="#f0f0ff" stroke="#000000" style="fill-opacity: 1; stroke-width: 1; stroke-opacity: 1;" class="Window Regular"><polygon points="1363.98,675.13 1363.98,860.35 1394.98,860.35 1394.98,675.13 "/><g id="Glass" class="Glass"><polygon points="1363.98,675.13 1363.98,860.35 1394.98,860.35 1394.98,675.13 "/></g><g id="Panel" class="Panel"><line x1="1379.4761252760666" x2="1379.4761252760666" y1="682.6323928983968" y2="852.8461532941739"/><line x1="1363.9761252760666" x2="1394.9761252760666" y1="682.6323928983968" y2="682.6323928983968"/><line x1="1363.9761252760666" x2="1394.9761252760666" y1="852.8461532941739" y2="852.8461532941739"/></g></g><g id="Window" fill="#f0f0ff" stroke="#000000" style="fill-opacity: 1; stroke-width: 1; stroke-opacity: 1;" class="Window Regular"><polygon points="1363.98,224.33 1363.98,420.25 1394.98,420.25 1394.98,224.33 "/><g id="Glass" class="Glass"><polygon points="1363.98,224.33 1363.98,420.25 1394.98,420.25 1394.98,224.33 "/></g><g id="Panel" class="Panel"><line x1="1379.4761252760666" x2="1379.4761252760666" y1="231.83071090908305" y2="412.74908503488155"/><line x1="1363.9761252760666" x2="1394.9761252760666" y1="231.83071090908305" y2="231.83071090908305"/><line x1="1363.9761252760666" x2="1394.9761252760666" y1="412.74908503488155" y2="412.74908503488155"/></g></g></g><g id="Wall" fill="#000000" stroke="#000000" style="fill-opacity: 1; stroke-opacity: 1; stroke-width: 0.2;" class="Wall External"><polygon points="1363.98,930.37 241.05,930.37 241.05,947.37 1394.98,947.37 "/><g id="Door" fill="#ffffff" stroke="#000000" style="fill-opacity: 1; stroke-width: 1; stroke-opacity: 1;" class="Door Swing Opposite"><polygon points="644.07,930.37 553.92,930.37 553.92,947.37 644.07,947.37 "/><g id="Threshold" class="Threshold"><polygon points="644.07,930.37 553.92,930.37 553.92,947.37 644.07,947.37 "/></g><g id="Panel" fill="none" style="" class="Panel Right Negative"><g id="PanelArea" fill="none" stroke="none" style="" class="PanelArea"><polygon points="644.07,930.37 553.92,930.37 553.92,947.37 644.07,947.37 "/></g><path d="M553.92,930.37 q0.00,-90.14 90.14,-90.14 l0.00,90.14Z"/></g><g id="Panel" fill="none" style="" class="Panel Left Positive"><g id="PanelArea" fill="none" stroke="none" style="" class="PanelArea"><polygon points="644.07,930.37 553.92,930.37 553.92,947.37 644.07,947.37 "/></g><path d="M553.92,947.37 q0.00,90.14 90.14,90.14 l0.00,-90.14Z"/></g></g></g><g id="Wall" fill="#000000" stroke="#000000" style="fill-opacity: 1; stroke-opacity: 1; stroke-width: 0.2;" class="Wall External"><polygon points="241.05,930.37 109.54,930.37 82.54,972.87 241.05,972.87 "/></g><g id="Wall" fill="#000000" stroke="#000000" style="fill-opacity: 1; stroke-opacity: 1; stroke-width: 0.2;" class="Wall External"><polygon points="109.54,930.37 109.54,155.47 82.54,118.47 82.54,972.87 "/><g id="Window" fill="#f0f0ff" stroke="#000000" style="fill-opacity: 1; stroke-width: 1; stroke-opacity: 1;" class="Window Regular"><polygon points="109.54,765.83 109.54,588.05 82.54,588.05 82.54,765.83 "/><g id="Glass" class="Glass"><polygon points="109.54,765.83 109.54,588.05 82.54,588.05 82.54,765.83 "/></g><g id="Panel" class="Panel"><line x1="96.04079570949874" x2="96.04079570949872" y1="758.327314444382" y2="595.5495305154167"/><line x1="109.54079570949874" x2="82.54079570949874" y1="758.327314444382" y2="758.327314444382"/><line x1="109.54079570949872" x2="82.54079570949872" y1="595.5495305154167" y2="595.5495305154167"/></g></g><g id="Window" fill="#f0f0ff" stroke="#000000" style="fill-opacity: 1; stroke-width: 1; stroke-opacity: 1;" class="Window Regular"><polygon points="109.54,423.88 109.54,234.31 82.54,234.31 82.54,423.88 "/><g id="Glass" class="Glass"><polygon points="109.54,423.88 109.54,234.31 82.54,234.31 82.54,423.88 "/></g><g id="Panel" class="Panel"><line x1="96.04079570949871" x2="96.0407957094987" y1="416.3772030742482" y2="241.8080355173413"/><line x1="109.54079570949871" x2="82.54079570949871" y1="416.3772030742482" y2="416.3772030742482"/><line x1="109.5407957094987" x2="82.5407957094987" y1="241.8080355173413" y2="241.8080355173413"/></g></g></g><g id="Wall" fill="#000000" stroke="#000000" style="fill-opacity: 1; stroke-opacity: 1; stroke-width: 0.2;" class="Wall"><polygon points="537.62,155.47 537.62,930.37 547.62,930.37 547.62,155.47 "/><g id="Door" fill="#ffffff" stroke="#000000" style="fill-opacity: 1; stroke-width: 1; stroke-opacity: 1;" class="Door Swing Beside"><polygon points="537.62,761.38 537.62,845.05 547.62,845.05 547.62,761.38 "/><g id="Threshold" class="Threshold"><polygon points="537.62,761.38 537.62,845.05 547.62,845.05 547.62,761.38 "/></g><g id="Panel" fill="none" style="" class="Panel Left Negative"><g id="PanelArea" fill="none" stroke="none" style="" class="PanelArea"><polygon points="537.62,761.38 537.62,845.05 547.62,845.05 547.62,761.38 "/></g><path d="M537.62,761.38 q-83.67,0.00 -83.67,83.67 l83.67,0.00Z"/></g></g><g id="Door" fill="#ffffff" stroke="#000000" style="fill-opacity: 1; stroke-width: 1; stroke-opacity: 1;" class="Door Swing Beside"><polygon points="537.62,390.09 537.62,477.00 547.62,477.00 547.62,390.09 "/><g id="Threshold" class="Threshold"><polygon points="537.62,390.09 537.62,477.00 547.62,477.00 547.62,390.09 "/></g><g id="Panel" fill="none" style="" class="Panel Left Negative"><g id="PanelArea" fill="none" stroke="none" style="" class="PanelArea"><polygon points="537.62,390.09 537.62,477.00 547.62,477.00 547.62,390.09 "/></g><path d="M537.62,390.09 q-86.91,0.00 -86.91,86.91 l86.91,0.00Z"/></g></g></g><g id="Wall" fill="#000000" stroke="#000000" style="fill-opacity: 1; stroke-opacity: 1; stroke-width: 0.2;" class="Wall"><polygon points="109.54,501.20 537.62,501.20 537.62,484.20 109.54,484.20 "/></g><g id="Wall" fill="#000000" stroke="#000000" style="fill-opacity: 1; stroke-opacity: 1; stroke-width: 0.2;" class="Wall"><polygon points="784.01,155.47 784.01,501.20 793.01,486.20 793.01,155.47 "/><g id="Door" fill="#ffffff" stroke="#000000" style="fill-opacity: 1; stroke-width: 1; stroke-opacity: 1;" class="Door Swing Beside"><polygon points="784.01,401.24 784.01,480.84 793.01,480.84 793.01,401.24 "/><g id="Threshold" class="Threshold"><polygon points="784.01,401.24 784.01,480.84 793.01,480.84 793.01,401.24 "/></g><g id="Panel" fill="none" style="" class="Panel Right Positive"><g id="PanelArea" fill="none" stroke="none" style="" class="PanelArea"><polygon points="784.01,401.24 784.01,480.84 793.01,480.84 793.01,401.24 "/></g><path d="M793.01,401.24 q79.60,0.00 79.60,79.60 l-79.60,0.00Z"/></g></g></g><g id="Wall" fill="#000000" stroke="#000000" style="fill-opacity: 1; stroke-opacity: 1; stroke-width: 0.2;" class="Wall"><polygon points="784.01,501.20 1363.98,501.20 1363.98,486.20 793.01,486.20 "/><g id="Door" fill="#ffffff" stroke="#000000" style="fill-opacity: 1; stroke-width: 1; stroke-opacity: 1;" class="Door None Beside"><polygon points="1110.89,501.20 1236.43,501.20 1236.43,486.20 1110.89,486.20 "/><g id="Threshold" stroke="#ffffff" style="" class="Threshold"><polygon points="1110.89,501.20 1236.43,501.20 1236.43,486.20 1110.89,486.20 "/></g></g></g><g id="Wall" fill="#000000" stroke="#000000" style="fill-opacity: 1; stroke-opacity: 1; stroke-width: 0.2;" class="Wall"><polygon points="537.62,383.11 784.01,383.11 784.01,374.11 537.62,374.11 "/><g id="Door" fill="#ffffff" stroke="#000000" style="fill-opacity: 1; stroke-width: 1; stroke-opacity: 1;" class="Door Swing Beside"><polygon points="623.47,383.11 700.38,383.11 700.38,374.11 623.47,374.11 "/><g id="Threshold" class="Threshold"><polygon points="623.47,383.11 700.38,383.11 700.38,374.11 623.47,374.11 "/></g><g id="Panel" fill="none" style="" class="Panel Left Negative"><g id="PanelArea" fill="none" stroke="none" style="" class="PanelArea"><polygon points="623.47,383.11 700.38,383.11 700.38,374.11 623.47,374.11 "/></g><path d="M623.47,383.11 q0.00,76.91 76.91,76.91 l0.00,-76.91Z"/></g></g></g><g id="Wall" fill="#000000" stroke="#000000" style="fill-opacity: 1; stroke-opacity: 1; stroke-width: 0.2;" class="Wall"><polygon points="780.42,643.97 780.42,930.37 789.42,930.37 789.42,643.97 "/></g><g id="Wall" fill="#000000" stroke="#000000" style="fill-opacity: 1; stroke-opacity: 1; stroke-width: 0.2;" class="Wall"><polygon points="1394.98,947.37 1567.85,947.37 1567.85,931.37 1394.98,931.37 "/></g><g id="Wall" fill="#000000" stroke="#000000" style="fill-opacity: 1; stroke-opacity: 1; stroke-width: 0.2;" class="Wall"><polygon points="1394.98,501.20 1490.23,501.20 1490.23,487.20 1394.98,487.20 "/></g><g class="FixedFurniture CoatCloset" fill="#ffffff" stroke="#000000" transform="matrix(0,1,-1,0,780.4166,644.473)" style="fill-opacity: 1; stroke-opacity: 1; stroke-width: 1;">
        <g class="BoundaryPolygon">
            <polygon points="0.00,0.00 64.61,0.00 64.61,67.38 0.00,67.38 "/>
        </g>
        <g class="Hanger" stroke="#9a9a9a" stroke-dasharray="5,5">
            <line x1="0" y1="33.687640773153014" x2="64.60955096644125" y2="33.687640773153014"/>
        </g>
        <g class="Direction" fill-opacity="0.9" style="display: none;">
            <polygon points="33.93,61.42 33.93,50.80 30.92,50.80 30.92,61.42 27.12,61.42 32.42,66.72 37.72,61.42 33.93,61.42 " fill="#444444"/>
        </g> 
        <g class="Name" fill-opacity="0.9" style="display: none;">
            <text transform="translate(3 12)" font-size="12" font-family="Verdana, Sans-Serif">CWH</text>
        </g>
        <desc>Width:60 Height:200 Depth:60 Elevation:0</desc>
     </g><g class="FixedFurniture Closet" fill="#ffffff" stroke="#000000" transform="matrix(0,1,-1,0,780.3072,709.0826)" style="fill-opacity: 1; stroke-opacity: 1; stroke-width: 1;">
        <g class="BoundaryPolygon">
            <polygon points="0.00,0.00 65.19,0.00 65.19,67.26 0.00,67.26 "/>
        </g>
        <g class="Direction" fill-opacity="0.9" style="display: none;">
            <polygon points="34.24,61.31 34.24,50.70 31.23,50.70 31.23,61.31 27.43,61.31 32.73,66.62 38.03,61.31 34.24,61.31 " fill="#444444"/>
        </g> 
        <g class="Name" fill-opacity="0.9" style="display: none;">
            <text transform="translate(3 12)" font-size="12" font-family="Verdana, Sans-Serif">CL</text>
        </g>
        <desc>Width:60 Height:200 Depth:60 Elevation:0</desc>
     </g><g class="FixedFurniture CoatCloset" fill="#ffffff" stroke="#000000" transform="matrix(0,1,-1,0,780.2134,774.5958)" style="fill-opacity: 1; stroke-opacity: 1; stroke-width: 1;">
        <g class="BoundaryPolygon">
            <polygon points="0.00,0.00 155.77,0.00 155.77,33.91 0.00,33.91 "/>
        </g>
        <g class="Hanger" fill="#ffffff" stroke="#9a9a9a" stroke-dasharray="5,5">
            <line x1="0" y1="16.95696595945986" x2="155.7716530639974" y2="16.95696595945986"/>
        </g>
        <g class="Direction" fill-opacity="0.9" style="display: none;">
            <polygon points="79.84,30.81 79.84,20.20 76.84,20.20 76.84,30.81 73.03,30.81 78.34,36.12 83.64,30.81 79.84,30.81 " fill="#444444"/>
        </g> 
        <g class="Name" fill-opacity="0.9" style="display: none;">
            <text transform="translate(3 12)" font-size="12" font-family="Verdana, Sans-Serif">CWH</text>
        </g>
        <desc>Width:120 Height:200 Depth:60 Elevation:0</desc>
     </g><g id="FixedFurnitureSet" transform="matrix(-1,0,0,-1,271.7025,930.1018)" class="FixedFurnitureSet" fill="#ffffff" stroke="#fc0fc0" style="fill-opacity: 0.4; stroke-opacity: 0.9; stroke-width: 1.5;"><g class="FixedFurniture Closet" fill="#ffffff" stroke="#000000" transform="matrix(1,0,0,1,0,0)" style="fill-opacity: 1; stroke-opacity: 1; stroke-width: 1;">
        <g class="BoundaryPolygon">
            <polygon points="0.00,0.00 64.74,0.00 64.74,68.89 0.00,68.89 "/>
        </g>
        <g class="Direction" fill-opacity="0.9" style="display: none;">
            <polygon points="34.00,62.80 34.00,52.18 30.99,52.18 30.99,62.80 27.19,62.80 32.49,68.10 37.79,62.80 34.00,62.80 " fill="#444444"/>
        </g> 
        <g class="Name" fill-opacity="0.9" style="display: none;">
            <text transform="translate(3 12)" font-size="12" font-family="Verdana, Sans-Serif">CL</text>
        </g>
        <desc>Width:60 Height:200 Depth:60 Elevation:0</desc>
    </g><g class="FixedFurniture Closet" fill="#ffffff" stroke="#000000" transform="matrix(1,0,0,1,64.7425,0)" style="fill-opacity: 1; stroke-opacity: 1; stroke-width: 1;">
        <g class="BoundaryPolygon">
            <polygon points="0.00,0.00 64.74,0.00 64.74,68.89 0.00,68.89 "/>
        </g>
        <g class="Direction" fill-opacity="0.9" style="display: none;">
            <polygon points="34.00,62.80 34.00,52.18 30.99,52.18 30.99,62.80 27.19,62.80 32.49,68.10 37.79,62.80 34.00,62.80 " fill="#444444"/>
        </g> 
        <g class="Name" fill-opacity="0.9" style="display: none;">
            <text transform="translate(3 12)" font-size="12" font-family="Verdana, Sans-Serif">CL</text>
        </g>
        <desc>Width:60 Height:200 Depth:60 Elevation:0</desc>
     </g></g><g class="FixedFurniture CoatCloset" fill="#ffffff" stroke="#000000" transform="matrix(-1,0,0,-1,402.3729,930.18)" style="fill-opacity: 1; stroke-opacity: 1; stroke-width: 1;">
        <g class="BoundaryPolygon">
            <polygon points="0.00,0.00 130.67,0.00 130.67,69.12 0.00,69.12 "/>
        </g>
        <g class="Hanger" fill="#ffffff" stroke="#9a9a9a" stroke-dasharray="5,5">
            <line x1="0" y1="34.55874578925759" x2="130.67031436298095" y2="34.55874578925759"/>
        </g>
        <g class="Direction" fill-opacity="0.9" style="display: none;">
            <polygon points="66.98,62.80 66.98,52.18 63.97,52.18 63.97,62.80 60.17,62.80 65.47,68.10 70.77,62.80 66.98,62.80 " fill="#444444"/>
        </g> 
        <g class="Name" fill-opacity="0.9" style="display: none;">
            <text transform="translate(3 12)" font-size="12" font-family="Verdana, Sans-Serif">CWH</text>
        </g>
        <desc>Width:120 Height:200 Depth:60 Elevation:0</desc>
     </g><g class="FixedFurniture CoatCloset" fill="#ffffff" stroke="#000000" transform="matrix(-1,0,0,-1,537.6221,930.18)" style="fill-opacity: 1; stroke-opacity: 1; stroke-width: 1;">
        <g class="BoundaryPolygon">
            <polygon points="0.00,0.00 134.86,0.00 134.86,69.12 0.00,69.12 "/>
        </g>
        <g class="Hanger" fill="#ffffff" stroke="#9a9a9a" stroke-dasharray="5,5">
            <line x1="0" y1="34.55874578925759" x2="134.86222344097283" y2="34.55874578925759"/>
        </g>
        <g class="Direction" fill-opacity="0.9" style="display: none;">
            <polygon points="69.13,62.80 69.13,52.18 66.12,52.18 66.12,62.80 62.32,62.80 67.62,68.10 72.92,62.80 69.13,62.80 " fill="#444444"/>
        </g> 
        <g class="Name" fill-opacity="0.9" style="display: none;">
            <text transform="translate(3 12)" font-size="12" font-family="Verdana, Sans-Serif">CWH</text>
        </g>
        <desc>Width:120 Height:200 Depth:60 Elevation:0</desc>
     </g><g id="FixedFurnitureSet" transform="matrix(0,-1,1,0,547.6533,364.3906)" class="FixedFurnitureSet" fill="#ffffff" stroke="#fc0fc0" style="fill-opacity: 0.4; stroke-opacity: 0.9; stroke-width: 1.5;"><g class="FixedFurniture BaseCabinet" fill="#ffffff" stroke="#000000" transform="matrix(1,0,0,1,0,0)" style="fill-opacity: 1; stroke-opacity: 1; stroke-width: 1;">
        <g class="BoundaryPolygon">
            <polygon points="0.00,0.00 62.15,0.00 62.15,47.11 0.00,47.11 "/>
        </g>
        <g class="Direction" fill-opacity="0.9" style="display: none;">
            <polygon points="33.16,43.34 33.16,32.72 30.15,32.72 30.15,43.34 26.34,43.34 31.65,48.14 36.95,43.34 33.16,43.34 " fill="#444444"/>
        </g> 
        <g class="Name" fill-opacity="0.9" style="display: none;">
            <text transform="translate(3 12)" font-size="12" font-family="Verdana, Sans-Serif">CB</text>
        </g>
        <desc>Width:60 Height:5 Depth:60 Elevation:105</desc>
    </g><g class="FixedFurniture Sink" fill="#ffffff" stroke="#000000" transform="matrix(1,0,0,1,0,0)" style="fill-opacity: 1; stroke-opacity: 1; stroke-width: 1;">
        <g class="BoundaryPolygon" fill="none" stroke="none">
        <polygon points="0.00,0.00 62.15,0.00 62.15,47.11 0.00,47.11 "/>
        </g>
        <g class="InnerPolygon">
            <polygon points="5.18,9.70 56.97,9.70 56.97,42.95 5.18,42.95 "/>
        </g>
        <g class="OuterDrain" stroke-width="0.8">
            <circle cx="31.07482276599256" cy="25.281744645005347" r="3.5"/>
        </g>
        <g class="InnerDrain" stroke-width="0.8">
            <circle cx="31.07482276599256" cy="25.281744645005347" r="2"/>
        </g>
        <g class="Faucet">
            <polygon points="27.97,3.93 33.97,3.93 33.97,17.93 27.97,17.93 "/>
        </g>
        <g class="Direction" fill-opacity="0.9" style="display: none;">
            <polygon points="33.16,43.34 33.16,32.72 30.15,32.72 30.15,43.34 26.34,43.34 31.65,48.14 36.95,43.34 33.16,43.34 " fill="#444444"/>
        </g> 
        <g class="Name" fill-opacity="0.9" style="display: none;">
            <text transform="translate(3 12)" font-size="12" font-family="Verdana, Sans-Serif">SINK</text>
        </g>
        <desc>Width:60 Height:90 Depth:60 Elevation:0</desc>
    </g></g><g class="FixedFurniture Toilet" fill="#ffffff" stroke="#000000" transform="matrix(0,1,-1,0,780.887,311.019)" style="fill-opacity: 1; stroke-opacity: 1; stroke-width: 1;">
	   <g class="BoundaryPolygon" fill="none" stroke="none"> 
            <polygon points="0,0 41,0 41,71 0,71"/>
		</g>
        <g class="InnerPolygon">
            <rect x="0.502" y="0.5" width="39.989" height="17.98"/>
            <path d="M40.491,44.237S41.619,70.5,20.907,70.5C-.523,70.5.6,44.237.6,44.237L.5,18.48H40.491Z"/>
            <rect x="17.318" y="7.975" width="6.357" height="3.03"/>
        </g>
        <desc>Width:41 Height:85 Depth:71 Elevation:0</desc>
    </g><g class="FixedFurniture Shower" fill="#ffffff" stroke="#000000" transform="matrix(0,1,-1,0,784.0085,191.4183)" style="fill-opacity: 1; stroke-opacity: 1; stroke-width: 1;"> 
	    <g class="BoundaryPolygon" fill="none" stroke="none">
            <polygon points="0,0 32,0 32,19 0,19"/>
        </g>
        <g class="InnerPolygon"> 
			<rect x="3.7" y="0.5" width="11.2" height="6.1"/>
			<rect x="17.6" y="0.5" width="11.2" height="6.1"/>
			<rect x="28.7" y="0.5" width="3.4" height="6.1"/>
			<rect x="0.5" y="0.5" width="3.2" height="6.1"/>
			<path d="M14.9,8.5c0,1.5-0.4,3.3-1.6,5    c-0.4,0.6-1,1.1-1.1,1.7c-0.2,1.1,0.3,2.8,2.5,3.2c0.5,0.1,1.3,0.1,1.6,0.1h-0.1c0.3,0,1.1,0,1.6-0.1c2.2-0.4,2.7-2.1,2.5-3.2    c-0.1-0.6-0.7-1.1-1.1-1.7c-1.2-1.7-1.6-3.5-1.6-5"/>
			<path d="M12.2,15.3c0.1,0.2,1.6,1.9,4.2,1.9 c2.4-0.1,3.7-1.7,3.9-1.9"/>
			<path d="M14.9,0.5h2.7v8c-0.9,0-1.8,0-2.7,0l0,0 C14.9,5.9,14.9,3.2,14.9,0.5z"/>
		</g>
	    <g class="Indicator"> 
			<path d="M3.7,3.6C5,3.1,5.2,3,5.2,3 c0,1.1,0,0,0,1.1C5.2,4.1,5.1,4.1,3.7,3.6"/>
			<path d="M28.7,3.6 C27.4,3.1,27.2,3,27.2,3c0,1.1,0,0,0,1.1C27.2,4.1,27.3,4.1,28.7,3.6"/>	
		</g>
        <desc>Width:32 Height:97 Depth:19 Elevation:135</desc>
	</g><g class="FixedFurniture ElectricalAppliance SpaceForAppliance2" fill="#ffffff" stroke="#000000" stroke-dasharray="4,4" transform="matrix(0,-1.1146,1.1432,0,547.8185,294.1181)" style="fill-opacity: 1; stroke-opacity: 1; stroke-width: 1;">
	    <g class="BoundaryPolygon"> 
		    <polygon points="0,0 60,0 60,60 0,60"/>
		</g>	
	    <g class="electricitySign" fill="none">
            <path d="M0,0,30.1,39.8V19.4L59.9,60"/>
		</g>
        <g class="Direction" fill-opacity="0.9" style="display: none;">
            <polygon points="32.009 55.197 32.009 44.581 29 44.581 29 55.197 25.197 55.197 30.5 60 35.803 55.197 32.009 55.197" fill="#444444"/>
        </g> 
        <g class="Name" fill-opacity="0.9" stroke-dasharray="none" style="display: none;">
            <text transform="translate(3 12)" font-size="12" font-family="Verdana, Sans-Serif">SFA</text>
        </g>
        <desc>Width:60 Height:90 Depth:60 Elevation:0</desc>
	</g><g transform="matrix(1,0,0,1,685.0292,155.4698)" class="FixedFurniture Misc" fill="none" stroke="#000000" style="fill-opacity: 1; stroke-opacity: 1; stroke-width: 1.8; stroke-dasharray: 5, 5;"><desc>Width:120 Height:200 Depth:60 Elevation:0</desc><g class="BoundaryPolygon"><path d="M0.00,0.00 L0.00,89.27 L2.94,94.36 L10.49,98.72 L98.62,98.72 "/></g></g><g class="FixedFurniture ElectricalAppliance Refrigerator" fill="#ffffff" stroke="#000000" transform="matrix(-1,0,0,-1,1048.3408,486.0002)" style="fill-opacity: 1; stroke-opacity: 1; stroke-width: 1;">
        <g class="BoundaryPolygon">
            <polygon points="0,0 60,0 60,60 0,60"/>
        </g>
        <g class="electricitySign" fill="none" style="display: block;">
            <path d="M0,0,30,37.1v-18L60,56.3"/>
        </g>
        <g class="Doors">
            <rect y="56" width="60" height="4"/>
        </g>
        <g class="Direction" fill-opacity="0.9" style="display: none;">
            <polygon points="32.009 55.197 32.009 44.581 29 44.581 29 55.197 25.197 55.197 30.5 60 35.803 55.197 32.009 55.197" fill="#444444"/>
        </g> 
        <g class="Name" fill-opacity="0.9" style="display: none;">
            <text transform="translate(3 12)" font-size="12" font-family="Verdana, Sans-Serif">REF</text>
        </g>
        <desc>Width:60 Height:170 Depth:60 Elevation:0</desc>
    </g><g class="FixedFurniture Closet" fill="#ffffff" stroke="#000000" transform="matrix(-1,0,0,-1,1108.3409,486.2033)" style="fill-opacity: 1; stroke-opacity: 1; stroke-width: 1;">
        <g class="BoundaryPolygon">
            <polygon points="0,0 60,0 60,60 0,60"/>
        </g>
        <g class="Direction" fill-opacity="0.9" style="display: none;">
            <polygon points="31.509 54.697 31.509 44.081 28.5 44.081 28.5 54.697 24.697 54.697 30 60 35.303 54.697 31.509 54.697" fill="#444444"/>
        </g> 
        <g class="Name" fill-opacity="0.9" style="display: none;">
            <text transform="translate(3 12)" font-size="12" font-family="Verdana, Sans-Serif">CL</text>
        </g>
        <desc>Width:60 Height:200 Depth:60 Elevation:0</desc>
     </g><g transform="matrix(1,0,0,1,793.0085,383.1109)" class="FixedFurniture BaseCabinet" fill="#ffffff" stroke="#000000" style="fill-opacity: 1; stroke-opacity: 1; stroke-width: 1;"><desc>Width:60 Height:90 Depth:60 Elevation:0</desc><g class="BoundaryPolygon"><polygon points="0.00,0.00 65.27,0.00 65.27,-133.72 346.11,-133.72 346.11,-227.64 0.00,-227.64 0.00,0.00 "/></g></g><g class="FixedFurniture ElectricalAppliance IntegratedStove" fill="#ffffff" stroke="#000000" transform="matrix(1,0,0,1,855.1172,155.7043)" style="fill-opacity: 1; stroke-opacity: 1; stroke-width: 1;">
        <g class="BoundaryPolygon" fill="none" stroke="none">
            <polygon points="0.00,0.00 73.06,0.00 73.06,88.84 0.00,88.84 "/>
        </g>
        <g class="InnerPolygon">
            <polygon points="2.00,2.00 70.63,2.00 70.63,85.88 2.00,85.88 "/>
        </g>
        <g class="OuterCircle">
            <circle cx="19.483654390438858" cy="23.69046190743469" r="8"/>
            <circle cx="53.58004957370683" cy="23.69046190743469" r="8"/>
            <circle cx="19.483654390438858" cy="65.14877024544538" r="8"/>
            <circle cx="53.58004957370683" cy="65.14877024544538" r="8"/>
        </g>
        <g class="Direction" fill-opacity="0.9" style="display: none;">
            <polygon points="38.98,81.73 38.98,71.11 35.97,71.11 35.97,81.73 32.17,81.73 37.47,86.53 42.77,81.73 38.98,81.73 " fill="#444444"/>
        </g> 
        <g class="Name" fill-opacity="0.9" style="display: none;">
            <text transform="translate(3 12)" font-size="12" font-family="Verdana, Sans-Serif">INT_STOVE</text>
        </g>
        <desc>Width:60 Height:90 Depth:30 Elevation:0</desc>
    </g><g class="FixedFurniture Sink" fill="#ffffff" stroke="#000000" transform="matrix(0,-1,1,0,798.7657,321.7623)" style="fill-opacity: 1; stroke-opacity: 1; stroke-width: 1;">
        <g class="BoundaryPolygon" fill="none" stroke="none">
            <polygon points="0.00,0.00 60.00,0.00 60.00,49.62 0.00,49.62 "/>
        </g>
        <g class="InnerPolygon">
            <polygon points="5.00,9.70 55.00,9.70 55.00,45.24 5.00,45.24 "/>
        </g>
        <g class="OuterDrain" stroke-width="0.8">
            <circle cx="30" cy="26.629382312285617" r="3.5"/>
        </g>
        <g class="InnerDrain" stroke-width="0.8">
            <circle cx="30" cy="26.629382312285617" r="2"/>
        </g>
        <g class="Faucet">
            <polygon points="27.00,4.13 33.00,4.13 33.00,18.13 27.00,18.13 "/>
        </g>
        <g class="Direction" fill-opacity="0.9" style="display: none;">
            <polygon points="32.01,45.65 32.01,35.03 29.00,35.03 29.00,45.65 25.20,45.65 30.50,50.45 35.80,45.65 32.01,45.65 " fill="#444444"/>
        </g> 
        <g class="Name" fill-opacity="0.9" style="display: none;">
            <text transform="translate(3 12)" font-size="12" font-family="Verdana, Sans-Serif">SINK</text>
        </g>
        <desc>Width:60 Height:90 Depth:60 Elevation:0</desc>
    </g><g class="FixedFurniture ElectricalAppliance Dishwasher" fill="#ffffff" stroke="#000000" transform="matrix(0,-0.8546,1.0415,0,793.2201,383.1109)" style="fill-opacity: 1; stroke-opacity: 1; stroke-width: 1;"> 
        <g class="BoundaryPolygon"> 
		    <polygon points="0,0 60,0 60,60 0,60"/>
		</g>
	    <g class="electricitySign" fill="none" style="display: block;">
            <path d="M0,0,30,38.9v-20L60,60"/>
	    </g>
	    <g class="Handle"> 
		    <path d="M10,59.6H49.8"/>
		</g>
        <g class="Direction" fill-opacity="0.9" style="display: none;">
            <polygon points="32.009 55.197 32.009 44.581 29 44.581 29 55.197 25.197 55.197 30.5 60 35.803 55.197 32.009 55.197" fill="#444444"/>
        </g> 
        <g class="Name" fill-opacity="0.9" style="display: none;">
            <text transform="translate(3 12)" font-size="12" font-family="Verdana, Sans-Serif">DW</text>
        </g>
        <desc>Width:60 Height:90 Depth:60 Elevation:0</desc>
	</g><g fill="#0000ff" stroke="#0000ff" style="display: none;" class="SelectionControls"><g style="display: none;" class="rotateControl"><circle cx="1075.1519098997453" cy="641.4381723621171" r="5" style="stroke : none; fill-opacity: 0.5; cursor:crosshair"/></g><g style="display: none;" class="ResizeNControl"><circle cx="0" cy="0" r="5" style="stroke : none; fill-opacity: 0.5"/></g><g style="display: none;" class="ResizeNEControl"><circle cx="0" cy="0" r="5" style="stroke : none; fill-opacity: 0.5"/></g><g style="display: none;" class="ResizeEControl"><circle cx="0" cy="0" r="5" style="stroke : none; fill-opacity: 0.5"/></g><g style="display: none;" class="ResizeSEControl"><circle cx="0" cy="0" r="5" style="stroke : none; fill-opacity: 0.5"/></g><g style="display: none;" class="ResizeSControl"><circle cx="0" cy="0" r="5" style="stroke : none; fill-opacity: 0.5"/></g><g style="display: none;" class="ResizeSWControl"><circle cx="0" cy="0" r="5" style="stroke : none; fill-opacity: 0.5"/></g><g style="display: none;" class="ResizeWControl"><circle cx="0" cy="0" r="5" style="stroke : none; fill-opacity: 0.5"/></g><g style="display: none;" class="ResizeNWControl"><circle cx="0" cy="0" r="5" style="stroke : none; fill-opacity: 0.5"/></g><g style="display: none;" class="removeControl"><polygon style="stroke : none; fill-opacity: 0.1" points="1049.77,671.44 1100.53,671.44 1100.53,710.45 1049.77,710.45 "/></g><g style="display: none;" class="copyPasteControl"><polygon style="stroke : none; fill-opacity: 0.1"/></g><g style="display: none;" class="translateControl"><polygon style="stroke : none; fill-opacity: 0.1; cursor:move" points="1049.77,671.44 1100.53,671.44 1100.53,710.45 1049.77,710.45 "/></g></g><g fill="#0000ff" stroke="#0000ff" style="display: none;" class="SelectionControls"><polygon fill="none" stroke="#0000ff" style="" points="789.42,501.20 1369.38,501.20 1369.38,930.37 789.42,930.37 "/><g style="display: none;" class="rotateControl"><circle cx="1079.400392565761" cy="471.20339736211713" r="5" style="stroke : none; fill-opacity: 0.5; cursor:crosshair"/></g><g style="display: none;" class="ResizeNControl"><circle cx="0" cy="0" r="5" style="stroke : none; fill-opacity: 0.5"/></g><g style="display: none;" class="ResizeNEControl"><circle cx="0" cy="0" r="5" style="stroke : none; fill-opacity: 0.5"/></g><g style="display: none;" class="ResizeEControl"><circle cx="0" cy="0" r="5" style="stroke : none; fill-opacity: 0.5"/></g><g style="display: none;" class="ResizeSEControl"><circle cx="0" cy="0" r="5" style="stroke : none; fill-opacity: 0.5"/></g><g style="display: none;" class="ResizeSControl"><circle cx="0" cy="0" r="5" style="stroke : none; fill-opacity: 0.5"/></g><g style="display: none;" class="ResizeSWControl"><circle cx="0" cy="0" r="5" style="stroke : none; fill-opacity: 0.5"/></g><g style="display: none;" class="ResizeWControl"><circle cx="0" cy="0" r="5" style="stroke : none; fill-opacity: 0.5"/></g><g style="display: none;" class="ResizeNWControl"><circle cx="0" cy="0" r="5" style="stroke : none; fill-opacity: 0.5"/></g><g style="display: none;" class="removeControl"><polygon style="stroke : none; fill-opacity: 0.1"/></g><g style="display: none;" class="copyPasteControl"><polygon style="stroke : none; fill-opacity: 0.1"/></g><g style="display: none;" class="translateControl"><polygon style="stroke : none; fill-opacity: 0.1; cursor:move"/></g></g></g></g></g></svg>
