<?xml version="1.0"?>
<svg xmlns="http://www.w3.org/2000/svg" xmlns:xlink="http://www.w3.org/1999/xlink" height="1000.489990234375" version="1.1" width="1264.219955444336" id="temp" viewBox="0 0 1264.219955444336 1000.489990234375"><defs/><g id="Model" class="Model v1-1"><g class="Floor"><g id="Floor-1" class="Floorplan Floor-1"><g id="cfd79ba0-695d-4421-a805-c8b46fb50413" fill="#ffffff" stroke="#ffffff" style="fill-opacity: 1; stroke-opacity: 1; stroke-width: 0.2;" class="Space Kitchen Kitchenette"><polygon points="651.06,452.34 660.06,452.34 660.06,387.86 844.12,387.86 844.12,409.12 854.00,409.12 854.00,606.84 660.06,606.84 660.06,541.70 651.06,541.70 651.06,606.84 452.16,606.84 452.16,634.84 451.27,634.84 451.27,414.30 465.99,413.87 465.99,387.86 651.06,387.86 "/><g transform="matrix(1,0,0,1,451.2681,387.859)" class="Dimension"><g transform="matrix(1,0,0,1,0,0)" style="display: none;" class="Visual"><g id="mark1" fill="#000000" stroke="none" transform="matrix(1,0,0,1,199.788,0)" style="fill-opacity: 1; pointer-events: visible;" class="DimensionMark"><polygon points="-5,5,0,0,5,5"/></g><g id="mark2" fill="#000000" stroke="none" transform="matrix(1,0,0,1,402.7297,123.4903)" style="fill-opacity: 1; pointer-events: visible;" class="DimensionMark"><polygon points="-5,-5,0,0,-5,5"/></g><g id="mark3" fill="#000000" stroke="none" transform="matrix(1,0,0,1,199.788,218.9856)" style="fill-opacity: 1; pointer-events: visible;" class="DimensionMark"><polygon points="-5,-5,0,0,5,-5"/></g><g id="mark4" fill="#000000" stroke="none" transform="matrix(1,0,0,1,0,123.4903)" style="fill-opacity: 1; pointer-events: visible;" class="DimensionMark"><polygon points="5,5,0,0,5,-5"/></g></g><g transform="matrix(1,0,0,1,283.3824,118.1222)" class="SpaceDimensionsLabel"><g id="NameLabel" style="display: block;" class="TextLabel NameLabel"><text x="0" y="0em" fill="#000000" stroke="none" style="font-family: Verdana; font-size: 33px; fill-opacity: 1; cursor: default;">KK</text></g><g id="DimensionMeasureLabel" transform="matrix(1,0,0,1,-117.125,79.5)" style="display: none;" class="TextLabel DimensionMeasureLabel"><text x="42.1796875" y="-1.2em" fill="#000000" stroke="none" style="font-family: Verdana; font-size: 33px; fill-opacity: 1; cursor: default;">13'3" x 7'2"</text><text x="0" y="0em" fill="#000000" stroke="none" style="font-family: Verdana; font-size: 33px; fill-opacity: 1; cursor: default;">4.03 m x 2.19 m</text></g></g></g></g><g id="3df342a7-f568-4696-a08f-1de27a6aff5f" fill="#ffffff" stroke="#ffffff" style="fill-opacity: 1; stroke-opacity: 1; stroke-width: 0.2;" class="Space Entry Lobby"><polygon points="854.00,975.73 672.06,975.75 672.06,807.10 461.16,807.10 461.16,752.60 452.16,752.60 452.16,975.75 451.27,975.75 451.27,634.84 461.16,634.84 461.16,615.84 854.00,615.84 "/><g transform="matrix(1,0,0,1,451.2681,615.8446)" class="Dimension"><g transform="matrix(1,0,0,1,0,0)" style="display: none;" class="Visual"><g id="mark1" fill="#000000" stroke="none" transform="matrix(1,0,0,1,220.7874,0)" style="fill-opacity: 1; pointer-events: visible;" class="DimensionMark"><polygon points="-5,5,0,0,5,5"/></g><g id="mark2" fill="#000000" stroke="none" transform="matrix(1,0,0,1,402.7297,179.9528)" style="fill-opacity: 1; pointer-events: visible;" class="DimensionMark"><polygon points="-5,-5,0,0,-5,5"/></g><g id="mark3" fill="#000000" stroke="none" transform="matrix(1,0,0,1,220.7874,359.9056)" style="fill-opacity: 1; pointer-events: visible;" class="DimensionMark"><polygon points="-5,-5,0,0,5,-5"/></g><g id="mark4" fill="#000000" stroke="none" transform="matrix(1,0,0,1,0,179.9528)" style="fill-opacity: 1; pointer-events: visible;" class="DimensionMark"><polygon points="5,5,0,0,5,-5"/></g></g><g transform="matrix(1,0,0,1,185.6609,101.1579)" class="SpaceDimensionsLabel"><g id="NameLabel" style="display: block;" class="TextLabel NameLabel"><text x="0" y="0em" fill="#000000" stroke="none" style="font-family: Verdana; font-size: 33px; fill-opacity: 1; cursor: default;">ET</text></g><g id="DimensionMeasureLabel" transform="matrix(1,0,0,1,-119.1406,79.2188)" style="display: none;" class="TextLabel DimensionMeasureLabel"><text x="21.1953125" y="-1.2em" fill="#000000" stroke="none" style="font-family: Verdana; font-size: 33px; fill-opacity: 1; cursor: default;">13'3" x 11'10"</text><text x="0" y="0em" fill="#000000" stroke="none" style="font-family: Verdana; font-size: 33px; fill-opacity: 1; cursor: default;">4.03 m x 3.60 m</text></g></g></g></g><g id="d2dd6fee-9c6a-4eba-b11d-7b25557e3f36" fill="#ffffff" stroke="#ffffff" style="fill-opacity: 1; stroke-opacity: 1; stroke-width: 0.2;" class="Space LivingRoom"><polygon points="445.79,413.87 465.99,413.87 451.27,414.30 451.27,975.75 63.14,975.75 63.14,387.86 445.79,387.86 "/><g transform="matrix(1,0,0,1,63.1379,387.859)" class="Dimension"><g transform="matrix(1,0,0,1,0,0)" style="display: none;" class="Visual"><g id="mark1" fill="#000000" stroke="none" transform="matrix(1,0,0,1,201.4265,0)" style="fill-opacity: 1; pointer-events: visible;" class="DimensionMark"><polygon points="-5,5,0,0,5,5"/></g><g id="mark2" fill="#000000" stroke="none" transform="matrix(1,0,0,1,388.1302,293.9456)" style="fill-opacity: 1; pointer-events: visible;" class="DimensionMark"><polygon points="-5,-5,0,0,-5,5"/></g><g id="mark3" fill="#000000" stroke="none" transform="matrix(1,0,0,1,201.4265,587.8911)" style="fill-opacity: 1; pointer-events: visible;" class="DimensionMark"><polygon points="-5,-5,0,0,5,-5"/></g><g id="mark4" fill="#000000" stroke="none" transform="matrix(1,0,0,1,0,293.9456)" style="fill-opacity: 1; pointer-events: visible;" class="DimensionMark"><polygon points="5,5,0,0,5,-5"/></g></g><g transform="matrix(1,0,0,1,174.4887,294.5004)" class="SpaceDimensionsLabel"><g id="NameLabel" style="display: block;" class="TextLabel NameLabel"><text x="0" y="0em" fill="#000000" stroke="none" style="font-family: Verdana; font-size: 33px; fill-opacity: 1; cursor: default;">OH</text></g><g id="DimensionMeasureLabel" transform="matrix(1,0,0,1,-114.6172,80.3126)" style="display: none;" class="TextLabel DimensionMeasureLabel"><text x="31.6953125" y="-1.2em" fill="#000000" stroke="none" style="font-family: Verdana; font-size: 33px; fill-opacity: 1; cursor: default;">12'9" x 19'3"</text><text x="0" y="0em" fill="#000000" stroke="none" style="font-family: Verdana; font-size: 33px; fill-opacity: 1; cursor: default;">3.88 m x 5.88 m</text></g></g></g></g><g id="7da26a8c-7b67-4018-83bb-a9d9a2c9ac17" fill="#ffffff" stroke="#ffffff" style="fill-opacity: 1; stroke-opacity: 1; stroke-width: 0.2;" class="Space Bedroom"><polygon points="1243.22,785.28 867.00,785.28 867.00,387.86 1243.22,387.86 "/><g transform="matrix(1,0,0,1,866.9978,387.859)" class="Dimension"><g transform="matrix(1,0,0,1,0,0)" style="display: none;" class="Visual"><g id="mark1" fill="#000000" stroke="none" transform="matrix(1,0,0,1,188.1113,0)" style="fill-opacity: 1; pointer-events: visible;" class="DimensionMark"><polygon points="-5,5,0,0,5,5"/></g><g id="mark2" fill="#000000" stroke="none" transform="matrix(1,0,0,1,376.2227,198.7124)" style="fill-opacity: 1; pointer-events: visible;" class="DimensionMark"><polygon points="-5,-5,0,0,-5,5"/></g><g id="mark3" fill="#000000" stroke="none" transform="matrix(1,0,0,1,188.1113,397.4248)" style="fill-opacity: 1; pointer-events: visible;" class="DimensionMark"><polygon points="-5,-5,0,0,5,-5"/></g><g id="mark4" fill="#000000" stroke="none" transform="matrix(1,0,0,1,0,198.7124)" style="fill-opacity: 1; pointer-events: visible;" class="DimensionMark"><polygon points="5,5,0,0,5,-5"/></g></g><g transform="matrix(1,0,0,1,176.5356,202.3298)" class="SpaceDimensionsLabel"><g id="NameLabel" style="display: block;" class="TextLabel NameLabel"><text x="0" y="0em" fill="#000000" stroke="none" style="font-family: Verdana; font-size: 33px; fill-opacity: 1; cursor: default;">MH</text></g><g id="DimensionMeasureLabel" transform="matrix(1,0,0,1,-113.6953,80.125)" style="display: none;" class="TextLabel DimensionMeasureLabel"><text x="31.6953125" y="-1.2em" fill="#000000" stroke="none" style="font-family: Verdana; font-size: 33px; fill-opacity: 1; cursor: default;">12'4" x 13'0"</text><text x="0" y="0em" fill="#000000" stroke="none" style="font-family: Verdana; font-size: 33px; fill-opacity: 1; cursor: default;">3.76 m x 3.97 m</text></g></g></g></g><g id="37d89256-deb9-40ba-9165-60ccbbe63f4d" fill="#ffffff" stroke="#ffffff" style="fill-opacity: 1; stroke-opacity: 1; stroke-width: 0.2;" class="Space Bath"><polygon points="663.06,975.75 461.16,975.75 461.16,816.10 663.06,816.10 "/><g transform="matrix(1,0,0,1,461.161,816.1026)" class="Dimension"><g transform="matrix(1,0,0,1,0,0)" style="display: none;" class="Visual"><g id="mark1" fill="#000000" stroke="none" transform="matrix(1,0,0,1,100.9473,0)" style="fill-opacity: 1; pointer-events: visible;" class="DimensionMark"><polygon points="-5,5,0,0,5,5"/></g><g id="mark2" fill="#000000" stroke="none" transform="matrix(1,0,0,1,201.8945,79.8238)" style="fill-opacity: 1; pointer-events: visible;" class="DimensionMark"><polygon points="-5,-5,0,0,-5,5"/></g><g id="mark3" fill="#000000" stroke="none" transform="matrix(1,0,0,1,100.9473,159.6475)" style="fill-opacity: 1; pointer-events: visible;" class="DimensionMark"><polygon points="-5,-5,0,0,5,-5"/></g><g id="mark4" fill="#000000" stroke="none" transform="matrix(1,0,0,1,0,79.8238)" style="fill-opacity: 1; pointer-events: visible;" class="DimensionMark"><polygon points="5,5,0,0,5,-5"/></g></g><g transform="matrix(1,0,0,1,103.3258,74.5477)" class="SpaceDimensionsLabel"><g id="NameLabel" style="display: block;" class="TextLabel NameLabel"><text x="0" y="0em" fill="#000000" stroke="none" style="font-family: Verdana; font-size: 33px; fill-opacity: 1; cursor: default;">KPH</text></g><g id="DimensionMeasureLabel" transform="matrix(1,0,0,1,-106.2187,79.9375)" style="display: none;" class="TextLabel DimensionMeasureLabel"><text x="52.671875" y="-1.2em" fill="#000000" stroke="none" style="font-family: Verdana; font-size: 33px; fill-opacity: 1; cursor: default;">6'7" x 5'3"</text><text x="0" y="0em" fill="#000000" stroke="none" style="font-family: Verdana; font-size: 33px; fill-opacity: 1; cursor: default;">2.02 m x 1.60 m</text></g></g></g></g><g id="Wall" fill="#000000" stroke="#000000" style="fill-opacity: 1; stroke-opacity: 1; stroke-width: 0.2;" class="Wall External"><polygon points="63.14,975.75 63.14,821.30 33.14,821.30 33.14,1000.49 "/></g><g id="Wall" fill="#000000" stroke="#000000" style="fill-opacity: 1; stroke-opacity: 1; stroke-width: 0.2;" class="Wall External"><polygon points="63.14,821.30 63.14,411.28 33.14,411.28 33.14,821.30 "/></g><g id="Wall" fill="#000000" stroke="#000000" style="fill-opacity: 1; stroke-opacity: 1; stroke-width: 0.2;" class="Wall External"><polygon points="63.14,411.28 63.14,387.86 33.14,360.86 33.14,411.28 "/></g><g id="Wall" fill="#000000" stroke="#000000" style="fill-opacity: 1; stroke-opacity: 1; stroke-width: 0.2;" class="Wall External"><polygon points="33.14,360.86 1264.22,360.86 1243.22,387.86 63.14,387.86 "/><g id="Window" fill="#f0f0ff" stroke="#000000" style="fill-opacity: 1; stroke-width: 1; stroke-opacity: 1;" class="Window Regular"><polygon points="93.87,360.86 445.43,360.86 445.43,387.86 93.87,387.86 "/><g id="Glass" class="Glass"><polygon points="93.87,360.86 445.43,360.86 445.43,387.86 93.87,387.86 "/></g><g id="Panel" class="Panel"><line x1="101.37013585296118" x2="437.930992426948" y1="374.35900906420346" y2="374.3590090642034"/><line x1="101.37013585296118" x2="101.37013585296118" y1="360.85900906420346" y2="387.85900906420346"/><line x1="437.930992426948" x2="437.930992426948" y1="360.8590090642034" y2="387.8590090642034"/></g></g><g id="Window" fill="#f0f0ff" stroke="#000000" style="fill-opacity: 1; stroke-width: 1; stroke-opacity: 1;" class="Window Regular"><polygon points="481.01,360.86 650.01,360.86 650.01,387.86 481.01,387.86 "/><g id="Glass" class="Glass"><polygon points="481.01,360.86 650.01,360.86 650.01,387.86 481.01,387.86 "/></g><g id="Panel" class="Panel"><line x1="488.5106433209007" x2="642.5140050508937" y1="374.3590090642034" y2="374.35900906420335"/><line x1="488.5106433209007" x2="488.5106433209007" y1="360.8590090642034" y2="387.85900906420335"/><line x1="642.5140050508937" x2="642.5140050508937" y1="360.85900906420335" y2="387.8590090642033"/></g></g><g id="Window" fill="#f0f0ff" stroke="#000000" style="fill-opacity: 1; stroke-width: 1; stroke-opacity: 1;" class="Window Regular"><polygon points="659.36,360.86 830.16,360.86 830.16,387.86 659.36,387.86 "/><g id="Glass" class="Glass"><polygon points="659.36,360.86 830.16,360.86 830.16,387.86 659.36,387.86 "/></g><g id="Panel" class="Panel"><line x1="666.8623736167968" x2="822.6578191349015" y1="374.35900906420335" y2="374.3590090642033"/><line x1="666.8623736167968" x2="666.8623736167968" y1="360.85900906420335" y2="387.85900906420335"/><line x1="822.6578191349015" x2="822.6578191349015" y1="360.8590090642033" y2="387.8590090642033"/></g></g><g id="Window" fill="#f0f0ff" stroke="#000000" style="fill-opacity: 1; stroke-width: 1; stroke-opacity: 1;" class="Window Regular"><polygon points="871.57,360.86 1234.92,360.86 1234.92,387.86 871.57,387.86 "/><g id="Glass" class="Glass"><polygon points="871.57,360.86 1234.92,360.86 1234.92,387.86 871.57,387.86 "/></g><g id="Panel" class="Panel"><line x1="879.073274692038" x2="1227.4184075560747" y1="374.3590090642033" y2="374.35900906420324"/><line x1="879.073274692038" x2="879.073274692038" y1="360.8590090642033" y2="387.8590090642033"/><line x1="1227.4184075560747" x2="1227.4184075560747" y1="360.85900906420324" y2="387.85900906420324"/></g></g></g><g id="Wall" fill="#000000" stroke="#000000" style="fill-opacity: 1; stroke-opacity: 1; stroke-width: 0.2;" class="Wall External"><polygon points="1264.22,360.86 1264.22,809.28 1243.22,785.28 1243.22,387.86 "/></g><g id="Wall" fill="#000000" stroke="#000000" style="fill-opacity: 1; stroke-opacity: 1; stroke-width: 0.2;" class="Wall External"><polygon points="1264.22,809.28 880.00,809.28 854.00,785.28 1243.22,785.28 "/></g><g id="Wall" fill="#000000" stroke="#000000" style="fill-opacity: 1; stroke-opacity: 1; stroke-width: 0.2;" class="Wall External"><polygon points="880.00,809.28 880.00,1000.47 854.00,975.73 854.00,785.28 "/><g id="Door" fill="#ffffff" stroke="#000000" style="fill-opacity: 1; stroke-width: 1; stroke-opacity: 1;" class="Door Swing Beside"><polygon points="880.00,819.60 880.00,912.48 854.00,912.48 854.00,819.60 "/><g id="Threshold" class="Threshold"><polygon points="880.00,819.60 880.00,912.48 854.00,912.48 854.00,819.60 "/></g><g id="Panel" fill="none" style="" class="Panel Right Negative"><g id="PanelArea" fill="none" stroke="none" style="" class="PanelArea"><polygon points="880.00,819.60 880.00,912.48 854.00,912.48 854.00,819.60 "/></g><path d="M880.00,912.48 q92.88,0.00 92.88,-92.88 l-92.88,0.00Z"/></g></g></g><g id="Wall" fill="#000000" stroke="#000000" style="fill-opacity: 1; stroke-opacity: 1; stroke-width: 0.2;" class="Wall External"><polygon points="880.00,1000.47 33.14,1000.49 63.14,975.75 854.00,975.73 "/></g><g id="Wall" fill="#000000" stroke="#000000" style="fill-opacity: 1; stroke-opacity: 1; stroke-width: 0.2;" class="Wall"><polygon points="854.00,808.61 854.00,409.12 867.00,409.12 867.00,808.61 "/><g id="Door" fill="#ffffff" stroke="#000000" style="fill-opacity: 1; stroke-width: 1; stroke-opacity: 1;" class="Door Swing Beside"><polygon points="854.00,721.67 854.00,641.82 867.00,641.82 867.00,721.67 "/><g id="Threshold" class="Threshold"><polygon points="854.00,721.67 854.00,641.82 867.00,641.82 867.00,721.67 "/></g><g id="Panel" fill="none" style="" class="Panel Left Negative"><g id="PanelArea" fill="none" stroke="none" style="" class="PanelArea"><polygon points="854.00,721.67 854.00,641.82 867.00,641.82 867.00,721.67 "/></g><path d="M854.00,721.67 q-79.85,0.00 -79.85,-79.85 l79.85,0.00Z"/></g></g></g><g id="Wall" fill="#000000" stroke="#000000" style="fill-opacity: 1; stroke-opacity: 1; stroke-width: 0.2;" class="Wall"><polygon points="844.12,409.12 844.12,360.86 867.00,360.86 867.00,409.12 "/></g><g id="Wall" fill="#000000" stroke="#000000" style="fill-opacity: 1; stroke-opacity: 1; stroke-width: 0.2;" class="Wall"><polygon points="867.00,615.84 461.16,615.84 452.16,606.84 867.00,606.84 "/></g><g id="Wall" fill="#000000" stroke="#000000" style="fill-opacity: 1; stroke-opacity: 1; stroke-width: 0.2;" class="Wall"><polygon points="461.16,615.84 461.16,634.84 452.16,634.84 452.16,606.84 "/></g><g id="Wall" fill="#000000" stroke="#000000" style="fill-opacity: 1; stroke-opacity: 1; stroke-width: 0.2;" class="Wall"><polygon points="461.16,752.60 461.16,1000.48 452.16,1000.48 452.16,752.60 "/></g><g id="Wall" fill="#000000" stroke="#000000" style="fill-opacity: 1; stroke-opacity: 1; stroke-width: 0.2;" class="Wall"><polygon points="452.16,807.10 672.06,807.10 663.06,816.10 452.16,816.10 "/></g><g id="Wall" fill="#000000" stroke="#000000" style="fill-opacity: 1; stroke-opacity: 1; stroke-width: 0.2;" class="Wall"><polygon points="672.06,807.10 672.06,1000.47 663.06,1000.47 663.06,816.10 "/><g id="Door" fill="#ffffff" stroke="#000000" style="fill-opacity: 1; stroke-width: 1; stroke-opacity: 1;" class="Door Swing Beside"><polygon points="672.06,824.77 672.06,886.33 663.06,886.33 663.06,824.77 "/><g id="Threshold" class="Threshold"><polygon points="672.06,824.77 672.06,886.33 663.06,886.33 663.06,824.77 "/></g><g id="Panel" fill="none" style="" class="Panel Left Negative"><g id="PanelArea" fill="none" stroke="none" style="" class="PanelArea"><polygon points="672.06,824.77 672.06,886.33 663.06,886.33 663.06,824.77 "/></g><path d="M672.06,824.77 q61.56,0.00 61.56,61.56 l-61.56,-0.00Z"/></g></g></g><g id="Wall" fill="#000000" stroke="#000000" style="fill-opacity: 1; stroke-opacity: 1; stroke-width: 0.2;" class="Wall"><polygon points="651.06,615.84 651.06,541.70 660.06,541.70 660.06,615.84 "/></g><g id="Wall" fill="#000000" stroke="#000000" style="fill-opacity: 1; stroke-opacity: 1; stroke-width: 0.2;" class="Wall"><polygon points="651.06,452.34 651.06,360.86 660.06,360.86 660.06,452.34 "/></g><g id="Wall" fill="#000000" stroke="#000000" style="fill-opacity: 1; stroke-opacity: 1; stroke-width: 0.2;" class="Wall"><polygon points="465.99,360.86 465.99,413.87 445.79,413.87 445.79,360.86 "/></g><g class="FixedFurniture CoatCloset" transform="matrix(-1,0,0,-1,854.2265,975.658)" style="fill-opacity: 1; stroke-opacity: 1;" fill="#ffffff" stroke="#000000">
        <g class="BoundaryPolygon" fill="rgb(255, 255, 255)" stroke="rgb(0, 0, 0)">
                <polygon points="0.00,0.00 182.17,0.00 182.17,60.00 0.00,60.00 "/>
            </g>
        <g class="Hanger" fill="rgb(255, 255, 255)" stroke="rgb(154, 154, 154)" stroke-dasharray="5,5">
            <line x1="0" y1="30" x2="182.17093898153593" y2="30"/>
            </g>
        <g class="Direction" fill-opacity="0.9" style="display: none;">
            <polygon points="93.38,54.52 93.38,43.90 90.37,43.90 90.37,54.52 86.56,54.52 91.87,59.82 97.17,54.52 93.38,54.52 " fill="#444444"/>
        </g> 
        <g class="Name" fill-opacity="0.9" style="display: none;">
            <text transform="translate(3 12)" font-size="12" font-family="Verdana, Sans-Serif">CWH</text>
        </g>
        <desc>Width:120 Height:200 Depth:60 Elevation:0</desc>
     </g><g class="FixedFurniture Toilet" transform="matrix(-1,0,0,-1,648.627,976.2389)" style="fill-opacity: 1; stroke-opacity: 1;" fill="#ffffff" stroke="#000000">
	   <g class="BoundaryPolygon" fill="rgb(255, 255, 255)" stroke="rgb(0, 0, 0)"> 
		<rect x="0.502" y="0.5" width="39.989" height="17.98"/>
          <path d="M40.491,44.237S41.619,70.5,20.907,70.5C-.523,70.5.6,44.237.6,44.237L.5,18.48H40.491Z"/>
          <rect x="17.318" y="7.975" width="6.357" height="3.03"/>
		</g>
        <desc>Width:40 Height:85 Depth:70 Elevation:0</desc>
    </g><g id="FixedFurnitureSet" transform="matrix(-1,0,0,-1,595.5745,975.6619)" class="FixedFurnitureSet" style="fill-opacity: 1; stroke-opacity: 1;" fill="#ffffff" stroke="#000000"><g class="FixedFurniture BaseCabinet" transform="matrix(1,0,0,1,0,0)">
            <g class="BoundaryPolygon" fill="rgb(255, 255, 255)" stroke="rgb(0, 0, 0)">
            <polygon points="0.00,0.00 49.70,0.00 49.70,37.36 0.00,37.36 "/>
            </g>
            <g class="Direction" fill-opacity="0.9" style="display: none;">
                <polygon points="26.51,34.37 26.51,23.76 23.50,23.76 23.50,34.37 19.70,34.37 25.00,39.17 30.31,34.37 26.51,34.37 " fill="#444444"/>
            </g> 
            <g class="Name" fill-opacity="0.9" style="display: none;">
                <text transform="translate(3 12)" font-size="12" font-family="Verdana, Sans-Serif">CB</text>
            </g>
            <desc>Width:185 Height:5 Depth:60 Elevation:105</desc>
        </g><g class="FixedFurniture Sink" transform="matrix(1,0,0,1,0,0)">
            <g class="InnerPolygon" fill="rgb(255, 255, 255)" stroke="rgb(0, 0, 0)">
                <polygon points="5.00,9.70 45.56,9.70 45.56,34.06 5.00,34.06 "/>
            </g>
            <g class="OuterDrain" fill="rgb(255, 255, 255)" stroke="rgb(0, 0, 0)" stroke-width="0.8">
                <circle cx="24.848404873197303" cy="20.05118547615454" r="3.5"/>
            </g>
            <g class="InnerDrain" fill="rgb(255, 255, 255)" stroke="rgb(0, 0, 0)" stroke-width="0.8">
                <circle cx="24.848404873197303" cy="20.05118547615454" r="2"/>
            </g>
            <g class="Faucet" fill="rgb(255, 255, 255)" stroke="rgb(0, 0, 0)">
                <polygon points="22.36,3.11 28.36,3.11 28.36,17.11 22.36,17.11 "/>
            </g>
           <g class="Direction" fill-opacity="0.9" style="display: none;">
                <polygon points="26.51,34.37 26.51,23.76 23.50,23.76 23.50,34.37 19.70,34.37 25.00,39.17 30.31,34.37 26.51,34.37 " fill="#444444"/>
            </g> 
            <g class="Name" fill-opacity="0.9" style="display: none;">
                <text transform="translate(3 12)" font-size="12" font-family="Verdana, Sans-Serif">SINK</text>
            </g>
            <desc>Width:60 Height:90 Depth:60 Elevation:0</desc>
        </g></g><g class="FixedFurniture Bathtub" transform="matrix(0,-0.9115,0.8996,0,461.175,975.7415)" style="fill-opacity: 1; stroke-opacity: 1;" fill="#ffffff" stroke="#000000"> 
	   <g class="BoundaryPolygon" fill="rgb(255, 255, 255)" stroke="rgb(0, 0, 0)"> 
		  <polygon points="0,0 175,0 175,82 0,82"/>
		  </g>
		
	   <g class="Tub" fill="rgb(255, 255, 255)" stroke="rgb(0, 0, 0)"> 
		  <path d="M166.6,41.2c0,19.7,0,35.7-79.3,35.7S8,60.9,8,41.2,8,5.5,87.3,5.5,166.6,21.5,166.6,41.2Z"/>
		  </g>
        <g class="Name" fill-opacity="0.9" style="display: none;">
            <text transform="translate(3 12)" font-size="12" font-family="Verdana, Sans-Serif">BT</text>
        </g>
        <desc>Width:175 Height:38 Depth:82 Elevation:0</desc>
	</g><g class="FixedFurniture Shower" transform="matrix(-1,0,0,-1,511.9999,976.2416)" style="fill-opacity: 1; stroke-opacity: 1;" fill="#ffffff" stroke="#000000"> 
	   <g class="BoundaryPolygon" fill="rgb(255, 255, 255)" stroke="rgb(0, 0, 0)" stroke-linejoin="round"> 
			<rect x="3.7" y="0.5" width="11.2" height="6.1"/>
			<rect x="17.6" y="0.5" width="11.2" height="6.1"/>
			<rect x="28.7" y="0.5" width="3.4" height="6.1"/>
			<rect x="0.5" y="0.5" width="3.2" height="6.1"/>
			<path d="M14.9,8.5c0,1.5-0.4,3.3-1.6,5    c-0.4,0.6-1,1.1-1.1,1.7c-0.2,1.1,0.3,2.8,2.5,3.2c0.5,0.1,1.3,0.1,1.6,0.1h-0.1c0.3,0,1.1,0,1.6-0.1c2.2-0.4,2.7-2.1,2.5-3.2    c-0.1-0.6-0.7-1.1-1.1-1.7c-1.2-1.7-1.6-3.5-1.6-5"/>
			<path d="M12.2,15.3c0.1,0.2,1.6,1.9,4.2,1.9 c2.4-0.1,3.7-1.7,3.9-1.9"/>
			<path d="M14.9,0.5h2.7v8c-0.9,0-1.8,0-2.7,0l0,0 C14.9,5.9,14.9,3.2,14.9,0.5z"/>
		</g>
	   <g class="Indicator" fill="rgb(255, 255, 255)" stroke="rgb(0, 0, 0)" stroke-width="0.5" stroke-linejoin="round"> 
			<path d="M3.7,3.6C5,3.1,5.2,3,5.2,3 c0,1.1,0,0,0,1.1C5.2,4.1,5.1,4.1,3.7,3.6"/>
			<path d="M28.7,3.6 C27.4,3.1,27.2,3,27.2,3c0,1.1,0,0,0,1.1C27.2,4.1,27.3,4.1,28.7,3.6"/>	
		</g>
        <desc>Width:35 Height:97 Depth:20 Elevation:135</desc>
	</g><g transform="matrix(1,0,0,1,843.8188,387.6124)" class="FixedFurniture BaseCabinet" style="fill-opacity: 1; stroke-opacity: 1;" fill="#ffffff" stroke="#000000"><desc>Width:60 Height:90 Depth:60 Elevation:0</desc><g class="BoundaryPolygon"><polygon points="0.00,0.00 0.30,21.50 10.18,21.50 10.18,58.78 -184.06,58.78 -184.06,-0.00 0.00,0.00 " fill="#ffffff" stroke="#000000" style=""/></g></g><g class="FixedFurniture BaseCabinet" transform="matrix(-1,0,0,-1,793.4891,606.5837)" style="fill-opacity: 1; stroke-opacity: 1;" fill="#ffffff" stroke="#000000">
            <g class="BoundaryPolygon" fill="rgb(255, 255, 255)" stroke="rgb(0, 0, 0)">
                <polygon points="0.00,0.00 133.15,0.00 133.15,60.00 0.00,60.00 "/>
            </g>
            <g class="Direction" fill-opacity="0.9" style="display: none;">
                <polygon points="71.03,55.20 71.03,44.58 68.02,44.58 68.02,55.20 64.22,55.20 69.52,60.00 74.83,55.20 71.03,55.20 " fill="#444444"/>
            </g> 
            <g class="Name" fill-opacity="0.9" style="display: none;">
                <text transform="translate(3 12)" font-size="12" font-family="Verdana, Sans-Serif">CB</text>
            </g>
            <desc>Width:60 Height:90 Depth:60 Elevation:0</desc>
        </g><g class="FixedFurniture ElectricalAppliance Refrigerator" transform="matrix(-0.9958,0,0,-1,853.2347,606.7665)" style="fill-opacity: 1; stroke-opacity: 1;" fill="#ffffff" stroke="#000000">
            <g class="BoundaryPolygon" fill="rgb(255, 255, 255)" stroke="rgb(0, 0, 0)">
                <polygon points="0,0 60,0 60,60 0,60"/>
            </g>
            <g class="electricitySign" fill="none" stroke="rgb(0, 0, 0)">
                    <path d="M0,0,30,37.1v-18L60,56.3"/>
            </g>
            <g class="Doors" fill="rgb(255, 255, 255)" stroke="rgb(0, 0, 0)">
                <rect y="56" width="60" height="4"/>
            </g>
             <g class="Direction" fill-opacity="0.9" style="display: none;">
                <polygon points="32.009 55.197 32.009 44.581 29 44.581 29 55.197 25.197 55.197 30.5 60 35.803 55.197 32.009 55.197" fill="#444444"/>
             </g> 
             <g class="Name" fill-opacity="0.9" style="display: none;">
                <text transform="translate(3 12)" font-size="12" font-family="Verdana, Sans-Serif">REF</text>
             </g>
            <desc>Width:60 Height:170 Depth:60 Elevation:0</desc>
        </g><g class="FixedFurniture ElectricalAppliance IntegratedStove" transform="matrix(-1,0,0,-1,722.6945,608.6931)" style="fill-opacity: 1; stroke-opacity: 1;" fill="#ffffff" stroke="#000000">
            <g class="BoundaryPolygon" fill="rgb(255, 255, 255)" stroke="rgb(0, 0, 0)">
                <polygon points="2.00,2.00 62.43,2.00 62.43,61.61 2.00,61.61 "/>
            </g>
            <g class="OuterCircle" fill="rgb(255, 255, 255)" stroke="rgb(0, 0, 0)" stroke-width="0.8">
                <circle cx="17.22113063010848" cy="16.995577481610955" r="8"/>
                <circle cx="47.35810923279834" cy="16.995577481610955" r="8"/>
                <circle cx="17.22113063010848" cy="46.63161571517006" r="8"/>
                <circle cx="47.35810923279834" cy="46.73783807443011" r="8"/>
            </g>
             <g class="Direction" fill-opacity="0.9" style="display: none;">
                <polygon points="34.45,58.63 34.45,48.02 31.44,48.02 31.44,58.63 27.64,58.63 32.94,63.43 38.25,58.63 34.45,58.63 " fill="#444444"/>
            </g> 
            <g class="Name" fill-opacity="0.9" style="display: none;">
                <text transform="translate(3 12)" font-size="12" font-family="Verdana, Sans-Serif">INT_STOVE</text>
            </g>
            <desc>Width:60 Height:90 Depth:30 Elevation:0</desc>
        </g><g class="FixedFurniture Sink" transform="matrix(-1,0,0,-1,787.7308,603.6605)" style="fill-opacity: 1; stroke-opacity: 1;" fill="#ffffff" stroke="#000000">
            <g class="InnerPolygon" fill="rgb(255, 255, 255)" stroke="rgb(0, 0, 0)">
                <polygon points="5.00,9.70 40.51,9.70 40.51,50.88 5.00,50.88 "/>
            </g>
            <g class="OuterDrain" fill="rgb(255, 255, 255)" stroke="rgb(0, 0, 0)" stroke-width="0.8">
                <circle cx="22.094624694829072" cy="29.94953669150382" r="3.5"/>
            </g>
            <g class="InnerDrain" fill="rgb(255, 255, 255)" stroke="rgb(0, 0, 0)" stroke-width="0.8">
                <circle cx="22.094624694829072" cy="29.94953669150382" r="2"/>
            </g>
            <g class="Faucet" fill="rgb(255, 255, 255)" stroke="rgb(0, 0, 0)">
                <polygon points="19.89,4.65 25.89,4.65 25.89,18.65 19.89,18.65 "/>
            </g>
           <g class="Direction" fill-opacity="0.9" style="display: none;">
                <polygon points="23.57,51.34 23.57,40.72 20.57,40.72 20.57,51.34 16.76,51.34 22.07,56.14 27.37,51.34 23.57,51.34 " fill="#444444"/>
            </g> 
            <g class="Name" fill-opacity="0.9" style="display: none;">
                <text transform="translate(3 12)" font-size="12" font-family="Verdana, Sans-Serif">SINK</text>
            </g>
            <desc>Width:60 Height:90 Depth:60 Elevation:0</desc>
        </g><g class="FixedFurniture WallCabinet" transform="matrix(-1,0,0,-1,793.4318,606.443)" style="fill-opacity: 0.7; stroke-opacity: 1;" fill="#ffffff" stroke="#000000">	
        <g class="BoundaryPolygon" fill="rgb(255, 255, 255)" stroke="rgb(0, 0, 0)">
                <polygon points="0.00,0.00 72.59,0.00 72.59,30.00 0.00,30.00 "/>
        </g>
        <g class="Direction" fill-opacity="0.9" style="display: none;">
                <polygon points="38.73,25.20 38.73,14.58 35.72,14.58 35.72,25.20 31.92,25.20 37.22,30.00 42.52,25.20 38.73,25.20 " fill="#444444"/>
        </g> 
        <g class="Name" fill-opacity="0.9" style="display: none;">
                <text transform="translate(3 12)" font-size="12" font-family="Verdana, Sans-Serif">UC</text>
        </g>
        <desc>Width:60 Height:60 Depth:50 Elevation:140</desc>
        </g><g fill="#0000ff" stroke="#0000ff" style="display: none;" class="SelectionControls"><g style="display: none;" class="rotateControl"><circle cx="263.00938257081117" cy="618.9687840642034" r="5" style="stroke : none; fill-opacity: 0.5; cursor:crosshair"/></g><g style="display: none;" class="ResizeNControl"><circle cx="0" cy="0" r="5" style="stroke : none; fill-opacity: 0.5"/></g><g style="display: none;" class="ResizeNEControl"><circle cx="0" cy="0" r="5" style="stroke : none; fill-opacity: 0.5"/></g><g style="display: none;" class="ResizeEControl"><circle cx="0" cy="0" r="5" style="stroke : none; fill-opacity: 0.5"/></g><g style="display: none;" class="ResizeSEControl"><circle cx="0" cy="0" r="5" style="stroke : none; fill-opacity: 0.5"/></g><g style="display: none;" class="ResizeSControl"><circle cx="0" cy="0" r="5" style="stroke : none; fill-opacity: 0.5"/></g><g style="display: none;" class="ResizeSWControl"><circle cx="0" cy="0" r="5" style="stroke : none; fill-opacity: 0.5"/></g><g style="display: none;" class="ResizeWControl"><circle cx="0" cy="0" r="5" style="stroke : none; fill-opacity: 0.5"/></g><g style="display: none;" class="ResizeNWControl"><circle cx="0" cy="0" r="5" style="stroke : none; fill-opacity: 0.5"/></g><g style="display: none;" class="removeControl"><polygon style="stroke : none; fill-opacity: 0.1" points="237.63,648.97 288.39,648.97 288.39,689.69 237.63,689.69 "/></g><g style="display: none;" class="copyPasteControl"><polygon style="stroke : none; fill-opacity: 0.1"/></g><g style="display: none;" class="translateControl"><polygon style="stroke : none; fill-opacity: 0.1; cursor:move" points="237.63,648.97 288.39,648.97 288.39,689.69 237.63,689.69 "/></g></g><g fill="#0000ff" stroke="#0000ff" style="display: none;" class="SelectionControls"><polygon fill="none" stroke="#0000ff" style="" points="63.14,387.86 465.99,387.86 465.99,975.75 63.14,975.75 "/><g style="display: none;" class="rotateControl"><circle cx="264.5643684838971" cy="357.85900906420346" r="5" style="stroke : none; fill-opacity: 0.5; cursor:crosshair"/></g><g style="display: none;" class="ResizeNControl"><circle cx="0" cy="0" r="5" style="stroke : none; fill-opacity: 0.5"/></g><g style="display: none;" class="ResizeNEControl"><circle cx="0" cy="0" r="5" style="stroke : none; fill-opacity: 0.5"/></g><g style="display: none;" class="ResizeEControl"><circle cx="0" cy="0" r="5" style="stroke : none; fill-opacity: 0.5"/></g><g style="display: none;" class="ResizeSEControl"><circle cx="0" cy="0" r="5" style="stroke : none; fill-opacity: 0.5"/></g><g style="display: none;" class="ResizeSControl"><circle cx="0" cy="0" r="5" style="stroke : none; fill-opacity: 0.5"/></g><g style="display: none;" class="ResizeSWControl"><circle cx="0" cy="0" r="5" style="stroke : none; fill-opacity: 0.5"/></g><g style="display: none;" class="ResizeWControl"><circle cx="0" cy="0" r="5" style="stroke : none; fill-opacity: 0.5"/></g><g style="display: none;" class="ResizeNWControl"><circle cx="0" cy="0" r="5" style="stroke : none; fill-opacity: 0.5"/></g><g style="display: none;" class="removeControl"><polygon style="stroke : none; fill-opacity: 0.1"/></g><g style="display: none;" class="copyPasteControl"><polygon style="stroke : none; fill-opacity: 0.1"/></g><g style="display: none;" class="translateControl"><polygon style="stroke : none; fill-opacity: 0.1; cursor:move"/></g></g></g></g></g></svg>
